<?xml version="1.0" encoding="UTF-8"?><svg id="_レイヤー_2" xmlns="http://www.w3.org/2000/svg" xmlns:xlink="http://www.w3.org/1999/xlink" viewBox="0 0 1018.27 418.18"><defs><style>.cls-1,.cls-2,.cls-3,.cls-4,.cls-5,.cls-6{fill:none;}.cls-2{stroke-dasharray:10.06 10.06;}.cls-2,.cls-3,.cls-4,.cls-5,.cls-6{stroke-miterlimit:10;}.cls-2,.cls-4{stroke:#f8b62d;stroke-width:4px;}.cls-3{stroke:#000;stroke-width:1.43px;}.cls-7{fill:#231815;}.cls-8{clip-path:url(#clippath-1);}.cls-4{stroke-dasharray:10.26 10.26;}.cls-5{stroke:#231815;stroke-width:6px;}.cls-6{opacity:0;stroke:#040000;}.cls-9{clip-path:url(#clippath);}</style><clipPath id="clippath"><rect class="cls-1" x="428.4" y="216.54" width="536.54" height="123.12"/></clipPath><clipPath id="clippath-1"><rect class="cls-1" width="1018.27" height="149.87"/></clipPath></defs><g id="_制作レイヤー"><g class="cls-9"><path d="M439.97,283.33c-.2.73-.2.81-.81,1.5-1.78,2.23-3.44,2.88-4.57,2.88-2.02,0-2.59-2.23-2.59-3.81,0-2.02,1.3-7,2.23-8.87,1.25-2.39,3.08-3.89,4.7-3.89,2.63,0,3.2,3.32,3.2,3.56s-.08.49-.12.69l-2.02,7.94M448.39,260.5s0-.44-.53-.44c-.61,0-4.45.37-5.14.44-.32.04-.57.24-.57.77,0,.49.36.49.97.49,1.94,0,2.02.28,2.02.69l-.12.81-2.43,9.6c-.73-1.5-1.9-2.59-3.73-2.59-4.74,0-9.76,5.95-9.76,11.86,0,3.81,2.23,6.48,5.38,6.48.81,0,2.83-.16,5.26-3.04.32,1.7,1.74,3.04,3.69,3.04,1.42,0,2.35-.93,3-2.23.69-1.46,1.22-3.93,1.22-4.01,0-.4-.37-.4-.49-.4-.4,0-.44.16-.57.73-.69,2.63-1.42,5.02-3.08,5.02-1.09,0-1.22-1.05-1.22-1.86,0-.97.08-1.25.24-1.94l5.83-23.4Z"/><path d="M461.03,283.28c-1.02.17-1.45.96-1.45,1.59,0,.77.59,1.05,1.11,1.05.62,0,1.61-.45,1.61-1.81,0-1.93-2.21-2.47-3.74-2.47-4.25,0-8.19,3.91-8.19,7.85,0,2.44,1.7,4.93,5.24,4.93,4.79,0,7.03-2.81,7.03-3.2,0-.17-.26-.48-.48-.48-.17,0-.23.06-.45.28-2.21,2.61-5.53,2.61-6.04,2.61-2.04,0-2.95-1.39-2.95-3.15,0-.82.4-3.91,1.87-5.87,1.08-1.39,2.55-2.18,3.97-2.18.4,0,1.76.06,2.47.85"/><path d="M504.26,282.77c.57,0,1.34,0,1.34-.81s-.77-.81-1.38-.81h-24.17c-.61,0-1.38,0-1.38.81s.77.81,1.34.81h24.25M504.22,274.91c.61,0,1.38,0,1.38-.81s-.77-.81-1.34-.81h-24.25c-.57,0-1.34,0-1.34.81s.77.81,1.38.81h24.17Z"/><path d="M537.36,292.77c0-4.45-3.08-11.3-10.12-14.86,4.37-2.35,9.6-7.09,10.08-14.66l.04-.24v-28.06c0-3.32,0-4.05.32-5.59.73-3.24,2.67-7.25,7.81-10.28.33-.2.37-.24.37-.97,0-.89-.04-.93-.93-.93-.73,0-.81,0-1.9.65-9.07,5.14-9.6,12.67-9.6,14.09v28.79c0,2.91,0,6.19-2.11,9.92-1.86,3.32-4.05,4.98-5.79,6.15-.57.37-.61.41-.61,1.09,0,.73.04.77.37.97,3.44,2.27,7.13,5.87,8.02,12.47.12.89.12.97.12,1.46v31.09c0,3.28,2.02,10.08,9.84,14.21.93.53,1.01.53,1.66.53.89,0,.93-.04.93-.93,0-.73-.04-.77-.2-.85-1.74-1.09-7.05-4.29-8.14-11.34-.16-1.05-.16-1.13-.16-1.66v-31.06"/><path d="M670.66,235.78h-.96c-.08.62-.37,2.29-.74,2.58-.23.17-2.41.17-2.81.17h-5.22c2.98-2.64,3.97-3.43,5.67-4.76,2.1-1.67,4.05-3.43,4.05-6.12,0-3.43-3-5.53-6.63-5.53s-5.9,2.46-5.9,5.07c0,1.45,1.22,1.59,1.5,1.59.68,0,1.5-.48,1.5-1.5,0-.51-.2-1.5-1.67-1.5.88-2.01,2.81-2.64,4.14-2.64,2.84,0,4.31,2.21,4.31,4.51,0,2.47-1.76,4.42-2.66,5.44l-6.83,6.75c-.28.25-.28.31-.28,1.1h11.68l.85-5.16"/><line class="cls-3" x1="576.9" y1="246.79" x2="751.92" y2="246.79"/><path d="M586.43,252.84c0-.76-.06-.79-.85-.79-1.81,1.78-4.39,1.81-5.56,1.81v1.02c.68,0,2.55,0,4.11-.79v14.45c0,.94,0,1.3-2.83,1.3h-1.08v1.02c.51-.03,4-.11,5.04-.11.88,0,4.45.08,5.07.11v-1.02h-1.08c-2.83,0-2.83-.37-2.83-1.3v-15.7"/><path d="M606.21,264.46h8.67c.37,0,1.05,0,1.05-.68s-.65-.71-1.05-.71h-8.67v-8.7c0-.37,0-1.05-.68-1.05s-.71.65-.71,1.05v8.7h-8.7c-.37,0-1.05,0-1.05.68s.65.71,1.05.71h8.7v8.7c0,.37,0,1.05.68,1.05s.71-.65.71-1.05v-8.7"/><path d="M621.65,263.67c.31-4,2.86-4.65,3.94-4.65,3.49,0,3.6,3.94,3.63,4.65h-7.57M630.41,264.41c.6,0,.79,0,.79-.62,0-2.49-1.39-5.56-5.61-5.56-3.71,0-6.55,2.95-6.55,6.43s3.15,6.49,6.92,6.49,5.24-3.06,5.24-3.69c0-.11-.06-.4-.48-.4-.37,0-.43.17-.51.45-.88,2.3-3.03,2.72-4.05,2.72-1.33,0-2.61-.59-3.46-1.67-1.05-1.33-1.08-3.06-1.08-4.17h8.79Z"/><path d="M641.89,264.52s-.23-.25-.23-.28c0-.09,1.87-2.1,2.12-2.35.99-1.11,1.98-2.18,4.22-2.21v-1.02c-.79.06-1.62.11-2.38.11-.85,0-1.96-.03-2.81-.11v1.02c.48.08.57.4.57.65,0,.06,0,.48-.43.96l-1.98,2.24-2.35-2.69c-.28-.31-.31-.45-.31-.57,0-.42.4-.59.77-.59v-1.02c-1.05.08-2.12.11-3.18.11-.85,0-1.93-.03-2.75-.11v1.02c1.3,0,2.04,0,2.78.85l3.54,4.08s.23.26.23.28c0,.08-2.12,2.41-2.41,2.72-1.05,1.13-2.01,2.18-4.28,2.24v1.02c.85-.06,1.47-.11,2.35-.11s1.98.03,2.84.11v-1.02c-.34-.06-.57-.26-.57-.65,0-.54.31-.91.76-1.39l1.98-2.18,2.47,2.81c.54.59.54.65.54.82,0,.57-.65.59-.77.59v1.02c.26-.03,2.3-.11,3.2-.11s1.81.03,2.72.11v-1.02c-1.9,0-2.13-.17-2.78-.91l-3.88-4.42"/><path d="M655.1,261.43c.85-1.42,2.49-2.15,4-2.15,2.38,0,4.22,2.5,4.22,5.47,0,3.23-2.12,5.61-4.53,5.61s-3.6-2.18-3.68-2.35v-6.57M657.22,275.35c-1.84,0-2.12,0-2.12-1.22v-4.62c.14.14,1.47,1.64,3.85,1.64,3.74,0,6.94-2.81,6.94-6.41s-2.89-6.38-6.49-6.38c-1.61,0-3.26.59-4.42,1.73v-1.73l-4.25.31v1.02c1.98,0,2.12.14,2.12,1.33v13.09c0,1.22-.28,1.22-2.12,1.22v1.02c.06,0,2.04-.11,3.23-.11,1.05,0,3,.08,3.26.11v-1.02Z"/><path d="M677.25,249.61c-5.38,3.8-6.8,9.81-6.8,14.14,0,4,1.19,10.2,6.8,14.17.23,0,.57,0,.57-.34,0-.17-.09-.23-.28-.43-3.77-3.4-5.16-8.22-5.16-13.38,0-7.65,2.92-11.39,5.24-13.49.11-.11.2-.2.2-.34,0-.34-.34-.34-.57-.34"/><path d="M692.62,266.9c-.14-1.64-1.11-8.53-5.73-8.53-1.67,0-3.12.91-3.91,1.64-1.73,1.56-2.07,3.37-2.07,3.46,0,.34.37.34.45.34.37,0,.4-.06.54-.48.6-1.67,2.69-2.69,4.59-2.69,4.56,0,5.16,4.56,5.16,7.45,0,1.42-.08,1.73-.2,2.04-.65,2.13-1.5,5.27-1.5,6.12,0,.31.12.68.48.68.2,0,.51,0,.96-1.47.34-1.1.88-3.2,1.11-5.24.11-.99,1.7-4.82,2.29-6.18.4-.88.99-2.21,2.32-4.68.08-.14.14-.26.14-.37,0-.34-.37-.34-.45-.34s-.34,0-.42.14c-.34.6-2.49,4.65-3.77,8.11"/><path d="M705.14,263.78c0-1.02-.85-1.64-1.61-1.64-.94,0-1.65.77-1.65,1.62,0,1.02.85,1.64,1.62,1.64.94,0,1.64-.77,1.64-1.61"/><path d="M719.84,259.67h2.78c.57,0,.94,0,.94-.62,0-.4-.37-.4-.88-.4h-2.63c.65-3.6.88-4.9,1.1-5.72.14-.62.77-1.22,1.44-1.22.03,0,.79,0,1.33.34-1.16.37-1.25,1.39-1.25,1.56,0,.62.48,1.05,1.13,1.05.77,0,1.62-.65,1.62-1.73,0-1.3-1.39-2.01-2.84-2.01-1.25,0-2.63.71-3.4,2.13-.57,1.05-.79,2.32-1.39,5.61h-2.24c-.57,0-.94,0-.94.62,0,.4.37.4.88.4h2.1c-.03.17-1.82,10.37-2.49,13.4-.14.62-.62,2.78-1.98,2.78-.03,0-.71,0-1.25-.34,1.16-.37,1.25-1.39,1.25-1.56,0-.62-.48-1.05-1.14-1.05-.76,0-1.62.65-1.62,1.73,0,1.27,1.33,2.01,2.75,2.01,1.81,0,3.06-1.87,3.4-2.49,1.02-1.9,1.67-5.38,1.73-5.73l1.59-8.76"/><path d="M734.54,267.12c-.37.1-.93.53-.93,1.21,0,.53.38.83.89.83s1.25-.38,1.25-1.4c0-1.52-1.96-1.78-3.08-1.78-3.42,0-6.39,2.79-6.39,5.48,0,1.76,1.3,3.68,4.35,3.68.38,0,2,0,3.38-.53,1.36-.53,2.16-1.46,2.16-1.68,0-.16-.26-.46-.45-.46-.1,0-.12.02-.45.34-.91,1.03-2.61,1.64-4.63,1.64-1.7,0-2.51-.95-2.51-2.35,0-2.06,1.33-5.44,4.53-5.44.22,0,1.23,0,1.86.44"/><path d="M741.81,249.61c-.2,0-.54,0-.54.34,0,.14.08.23.26.42,2.44,2.24,5.16,6.07,5.16,13.38,0,5.92-1.84,10.4-4.9,13.18-.48.48-.51.51-.51.65s.08.34.37.34c.34,0,3.03-1.87,4.9-5.41,1.25-2.35,2.07-5.41,2.07-8.73,0-4-1.19-10.2-6.8-14.17"/><path d="M839.29,266.69c0-.12,0-.2-.69-.89-5.06-5.1-6.36-12.75-6.36-18.95,0-7.05,1.54-14.09,6.52-19.15.53-.49.53-.57.53-.69,0-.28-.16-.41-.4-.41-.4,0-4.05,2.75-6.44,7.9-2.06,4.45-2.55,8.95-2.55,12.35,0,3.16.45,8.06,2.67,12.63,2.43,4.98,5.91,7.61,6.32,7.61.24,0,.4-.12.4-.4"/><path d="M856.45,240.78h3.48c.81,0,1.21,0,1.21-.81,0-.44-.4-.44-1.09-.44h-3.36l.85-4.62c.16-.85.73-3.72.97-4.21.36-.77,1.05-1.38,1.9-1.38.16,0,1.22,0,1.99.73-1.78.16-2.19,1.58-2.19,2.19,0,.93.73,1.42,1.5,1.42,1.05,0,2.23-.89,2.23-2.43,0-1.86-1.86-2.79-3.52-2.79-1.38,0-3.93.73-5.14,4.74-.24.85-.36,1.25-1.34,6.36h-2.79c-.77,0-1.21,0-1.21.77,0,.49.36.49,1.13.49h2.67l-3.04,15.99c-.73,3.93-1.42,7.61-3.52,7.61-.16,0-1.17,0-1.94-.73,1.86-.12,2.23-1.58,2.23-2.19,0-.93-.73-1.42-1.5-1.42-1.05,0-2.23.89-2.23,2.43,0,1.82,1.78,2.79,3.44,2.79,2.23,0,3.85-2.39,4.57-3.93,1.3-2.55,2.23-7.45,2.27-7.73l2.43-12.83"/><path d="M873.89,252.11c-1.02.17-1.45.96-1.45,1.59,0,.77.6,1.05,1.11,1.05.62,0,1.62-.45,1.62-1.81,0-1.93-2.21-2.47-3.74-2.47-4.25,0-8.19,3.91-8.19,7.85,0,2.44,1.7,4.93,5.24,4.93,4.79,0,7.03-2.81,7.03-3.2,0-.17-.26-.48-.48-.48-.17,0-.23.06-.45.28-2.21,2.61-5.53,2.61-6.04,2.61-2.04,0-2.95-1.39-2.95-3.15,0-.82.4-3.91,1.87-5.87,1.08-1.39,2.55-2.18,3.97-2.18.4,0,1.76.06,2.47.85"/><path d="M916.59,236.81c.49-.24.77-.44.77-.89s-.37-.81-.81-.81c-.12,0-.2,0-.73.28l-22.43,10.57c-.44.2-.77.41-.77.89s.33.69.77.89l22.43,10.57c.53.28.61.28.73.28.45,0,.81-.37.81-.81s-.28-.65-.77-.89l-21.26-10.04,21.26-10.04"/><path d="M942.04,256.97c-1.58,0-3.97-1.01-4.7-4.9-.45-2.43-.45-6.15-.45-8.54,0-2.59,0-5.26.32-7.45.77-4.82,3.81-5.18,4.82-5.18,1.34,0,4.01.73,4.78,4.74.41,2.27.41,5.34.41,7.9,0,3.04,0,5.79-.45,8.38-.61,3.85-2.91,5.06-4.74,5.06M950.58,244.02c0-3.24-.2-6.48-1.62-9.47-1.86-3.89-5.18-4.54-6.88-4.54-2.43,0-5.38,1.05-7.04,4.82-1.3,2.79-1.5,5.95-1.5,9.19,0,3.04.16,6.68,1.82,9.76,1.74,3.28,4.7,4.09,6.68,4.09,2.19,0,5.26-.85,7.05-4.7,1.29-2.79,1.5-5.95,1.5-9.15Z"/><path d="M963.99,246.85c0-3.16-.44-8.06-2.67-12.63-2.43-4.98-5.91-7.61-6.32-7.61-.24,0-.4.16-.4.41,0,.12,0,.2.77.93,3.97,4.01,6.27,10.45,6.27,18.91,0,6.92-1.5,14.05-6.52,19.15-.53.49-.53.57-.53.69,0,.24.16.4.4.4.4,0,4.05-2.75,6.44-7.89,2.06-4.45,2.55-8.95,2.55-12.35"/><path d="M684.89,291.13h-.96c-.08.62-.37,2.29-.74,2.58-.23.17-2.41.17-2.81.17h-5.22c2.98-2.64,3.97-3.43,5.67-4.76,2.1-1.67,4.05-3.43,4.05-6.12,0-3.43-3-5.53-6.63-5.53s-5.9,2.47-5.9,5.07c0,1.45,1.22,1.59,1.5,1.59.68,0,1.5-.48,1.5-1.5,0-.51-.2-1.5-1.67-1.5.88-2.01,2.81-2.64,4.14-2.64,2.84,0,4.31,2.21,4.31,4.51,0,2.47-1.76,4.42-2.66,5.44l-6.83,6.75c-.28.25-.28.31-.28,1.1h11.68l.85-5.16"/><line class="cls-3" x1="576.9" y1="302.08" x2="780.51" y2="302.08"/><path d="M586.43,308.19c0-.76-.06-.79-.85-.79-1.81,1.78-4.39,1.81-5.56,1.81v1.02c.68,0,2.55,0,4.11-.79v14.45c0,.94,0,1.3-2.83,1.3h-1.08v1.02c.51-.03,4-.11,5.04-.11.88,0,4.45.08,5.07.11v-1.02h-1.08c-2.83,0-2.83-.37-2.83-1.3v-15.7"/><path d="M606.21,319.81h8.67c.37,0,1.05,0,1.05-.68s-.65-.71-1.05-.71h-8.67v-8.7c0-.37,0-1.05-.68-1.05s-.71.65-.71,1.05v8.7h-8.7c-.37,0-1.05,0-1.05.68s.65.71,1.05.71h8.7v8.7c0,.37,0,1.05.68,1.05s.71-.65.71-1.05v-8.7"/><path d="M621.65,319.02c.31-4,2.86-4.65,3.94-4.65,3.49,0,3.6,3.94,3.63,4.65h-7.57M630.41,319.75c.6,0,.79,0,.79-.62,0-2.49-1.39-5.56-5.61-5.56-3.71,0-6.55,2.95-6.55,6.43s3.15,6.49,6.92,6.49,5.24-3.06,5.24-3.69c0-.11-.06-.4-.48-.4-.37,0-.43.17-.51.45-.88,2.3-3.03,2.72-4.05,2.72-1.33,0-2.61-.59-3.46-1.67-1.05-1.33-1.08-3.06-1.08-4.17h8.79Z"/><path d="M641.89,319.87s-.23-.25-.23-.28c0-.09,1.87-2.1,2.12-2.35.99-1.11,1.98-2.18,4.22-2.21v-1.02c-.79.06-1.62.11-2.38.11-.85,0-1.96-.03-2.81-.11v1.02c.48.08.57.4.57.65,0,.06,0,.48-.43.96l-1.98,2.24-2.35-2.69c-.28-.31-.31-.45-.31-.57,0-.42.4-.59.77-.59v-1.02c-1.05.08-2.12.11-3.18.11-.85,0-1.93-.03-2.75-.11v1.02c1.3,0,2.04,0,2.78.85l3.54,4.08s.23.26.23.28c0,.08-2.12,2.41-2.41,2.72-1.05,1.13-2.01,2.18-4.28,2.24v1.02c.85-.06,1.47-.11,2.35-.11s1.98.03,2.84.11v-1.02c-.34-.06-.57-.26-.57-.65,0-.54.31-.91.76-1.39l1.98-2.18,2.47,2.81c.54.59.54.65.54.82,0,.57-.65.59-.77.59v1.02c.26-.03,2.3-.11,3.2-.11s1.81.03,2.72.11v-1.02c-1.9,0-2.13-.17-2.78-.91l-3.88-4.42"/><path d="M655.1,316.78c.85-1.42,2.49-2.15,4-2.15,2.38,0,4.22,2.5,4.22,5.47,0,3.23-2.12,5.61-4.53,5.61s-3.6-2.18-3.68-2.35v-6.57M657.22,330.69c-1.84,0-2.12,0-2.12-1.22v-4.62c.14.14,1.47,1.64,3.85,1.64,3.74,0,6.94-2.81,6.94-6.41s-2.89-6.38-6.49-6.38c-1.61,0-3.26.59-4.42,1.73v-1.73l-4.25.31v1.02c1.98,0,2.12.14,2.12,1.33v13.09c0,1.22-.28,1.22-2.12,1.22v1.02c.06,0,2.04-.11,3.23-.11,1.05,0,3,.08,3.26.11v-1.02Z"/><path d="M677.25,304.96c-5.38,3.8-6.8,9.81-6.8,14.14,0,4,1.19,10.2,6.8,14.17.23,0,.57,0,.57-.34,0-.17-.09-.23-.28-.43-3.77-3.4-5.16-8.22-5.16-13.38,0-7.65,2.92-11.39,5.24-13.49.11-.11.2-.2.2-.34,0-.34-.34-.34-.57-.34"/><path d="M692.62,322.25c-.14-1.64-1.11-8.53-5.73-8.53-1.67,0-3.12.91-3.91,1.64-1.73,1.56-2.07,3.37-2.07,3.46,0,.34.37.34.45.34.37,0,.4-.06.54-.48.6-1.67,2.69-2.69,4.59-2.69,4.56,0,5.16,4.56,5.16,7.45,0,1.42-.08,1.73-.2,2.04-.65,2.13-1.5,5.27-1.5,6.12,0,.31.12.68.48.68.2,0,.51,0,.96-1.47.34-1.1.88-3.2,1.11-5.24.11-.99,1.7-4.82,2.29-6.18.4-.88.99-2.21,2.32-4.68.08-.14.14-.26.14-.37,0-.34-.37-.34-.45-.34s-.34,0-.42.14c-.34.6-2.49,4.65-3.77,8.11"/><path d="M705.14,319.13c0-1.02-.85-1.64-1.61-1.64-.94,0-1.65.77-1.65,1.62,0,1.02.85,1.64,1.62,1.64.94,0,1.64-.77,1.64-1.61"/><path d="M717.18,307.4c.03-.06.11-.43.11-.45,0-.14-.11-.4-.45-.4-.57,0-2.92.23-3.63.28-.23.03-.62.06-.62.65,0,.4.4.4.74.4,1.36,0,1.36.2,1.36.43,0,.2-.06.37-.11.62l-4,16.04c-.14.51-.14.57-.14.62,0,.43.34.91.96.91.31,0,.85-.14,1.16-.74.08-.17.34-1.19.48-1.79l.65-2.52c.08-.43.37-1.5.45-1.93.28-1.08.28-1.1.85-2.01.9-1.39,2.32-3,4.53-3,1.59,0,1.67,1.3,1.67,1.98,0,1.7-1.22,4.85-1.67,6.04-.31.79-.43,1.05-.43,1.53,0,1.5,1.25,2.44,2.69,2.44,2.84,0,4.08-3.91,4.08-4.34,0-.37-.37-.37-.45-.37-.4,0-.43.17-.54.48-.65,2.27-1.9,3.43-3,3.43-.6,0-.71-.4-.71-.99,0-.65.14-1.02.65-2.3.34-.88,1.5-3.88,1.5-5.47,0-.45,0-1.64-1.05-2.47-.48-.37-1.3-.76-2.64-.76-2.07,0-3.57,1.13-4.62,2.35l2.15-8.67"/><path d="M733.71,319.13c0-1.02-.85-1.64-1.61-1.64-.94,0-1.65.77-1.65,1.62,0,1.02.85,1.64,1.62,1.64.94,0,1.64-.77,1.64-1.61"/><path d="M748.42,315.02h2.78c.57,0,.94,0,.94-.62,0-.4-.37-.4-.88-.4h-2.63c.65-3.6.88-4.9,1.1-5.72.14-.62.77-1.22,1.44-1.22.03,0,.79,0,1.33.34-1.16.37-1.25,1.39-1.25,1.56,0,.62.48,1.05,1.13,1.05.77,0,1.62-.65,1.62-1.73,0-1.3-1.39-2.01-2.84-2.01-1.25,0-2.63.71-3.4,2.13-.57,1.05-.79,2.32-1.39,5.61h-2.24c-.57,0-.94,0-.94.62,0,.4.37.4.88.4h2.1c-.03.17-1.82,10.37-2.49,13.4-.14.62-.62,2.78-1.98,2.78-.03,0-.71,0-1.25-.34,1.16-.37,1.25-1.39,1.25-1.56,0-.62-.48-1.05-1.14-1.05-.76,0-1.62.65-1.62,1.73,0,1.27,1.33,2.01,2.75,2.01,1.81,0,3.06-1.87,3.4-2.49,1.02-1.9,1.67-5.38,1.73-5.73l1.59-8.76"/><path d="M763.12,322.47c-.37.1-.93.53-.93,1.21,0,.53.38.83.89.83s1.25-.38,1.25-1.4c0-1.52-1.96-1.78-3.08-1.78-3.42,0-6.39,2.79-6.39,5.48,0,1.76,1.3,3.68,4.35,3.68.38,0,2,0,3.38-.53,1.36-.53,2.16-1.46,2.16-1.68,0-.16-.26-.46-.45-.46-.1,0-.12.02-.45.34-.91,1.03-2.61,1.64-4.63,1.64-1.7,0-2.51-.95-2.51-2.35,0-2.06,1.33-5.44,4.53-5.44.22,0,1.23,0,1.86.44"/><path d="M770.38,304.96c-.2,0-.54,0-.54.34,0,.14.08.23.26.42,2.44,2.24,5.16,6.07,5.16,13.38,0,5.92-1.84,10.4-4.9,13.18-.48.48-.51.51-.51.65s.08.34.37.34c.34,0,3.03-1.87,4.9-5.41,1.25-2.35,2.07-5.41,2.07-8.73,0-4-1.19-10.2-6.8-14.17"/><path d="M839.29,321.93c0-.12,0-.2-.69-.89-5.06-5.1-6.36-12.75-6.36-18.95,0-7.05,1.54-14.09,6.52-19.15.53-.49.53-.57.53-.69,0-.28-.16-.41-.4-.41-.4,0-4.05,2.75-6.44,7.9-2.06,4.45-2.55,8.95-2.55,12.35,0,3.16.45,8.06,2.67,12.63,2.43,4.98,5.91,7.61,6.32,7.61.24,0,.4-.12.4-.4"/><path d="M856.45,296.01h3.48c.81,0,1.21,0,1.21-.81,0-.44-.4-.44-1.09-.44h-3.36l.85-4.62c.16-.85.73-3.72.97-4.21.36-.77,1.05-1.38,1.9-1.38.16,0,1.22,0,1.99.73-1.78.16-2.19,1.58-2.19,2.19,0,.93.73,1.42,1.5,1.42,1.05,0,2.23-.89,2.23-2.43,0-1.86-1.86-2.79-3.52-2.79-1.38,0-3.93.73-5.14,4.74-.24.85-.36,1.25-1.34,6.36h-2.79c-.77,0-1.21,0-1.21.77,0,.49.36.49,1.13.49h2.67l-3.04,15.99c-.73,3.93-1.42,7.61-3.52,7.61-.16,0-1.17,0-1.94-.73,1.86-.12,2.23-1.58,2.23-2.19,0-.93-.73-1.42-1.5-1.42-1.05,0-2.23.89-2.23,2.43,0,1.82,1.78,2.79,3.44,2.79,2.23,0,3.85-2.39,4.57-3.93,1.3-2.55,2.23-7.45,2.27-7.73l2.43-12.83"/><path d="M873.89,307.45c-1.02.17-1.45.96-1.45,1.59,0,.77.6,1.05,1.11,1.05.62,0,1.62-.45,1.62-1.81,0-1.93-2.21-2.47-3.74-2.47-4.25,0-8.19,3.91-8.19,7.85,0,2.44,1.7,4.93,5.24,4.93,4.79,0,7.03-2.81,7.03-3.2,0-.17-.26-.48-.48-.48-.17,0-.23.06-.45.28-2.21,2.61-5.53,2.61-6.04,2.61-2.04,0-2.95-1.39-2.95-3.15,0-.82.4-3.91,1.87-5.87,1.08-1.39,2.55-2.18,3.97-2.18.4,0,1.76.06,2.47.85"/><path d="M915.94,317.76c.69,0,1.42,0,1.42-.81s-.85-.81-1.46-.81h-21.82c-.61,0-1.46,0-1.46.81s.73.81,1.42.81h21.9M916.55,299.09c.57-.24.81-.53.81-.89,0-.4-.16-.65-.81-.93l-22.31-10.53c-.57-.28-.73-.28-.81-.28-.48,0-.81.36-.81.81,0,.49.33.69.77.89l21.26,10-21.18,10c-.81.36-.85.69-.85.93,0,.44.36.81.81.81.12,0,.2,0,.73-.28l22.39-10.53Z"/><path d="M942.04,312.21c-1.58,0-3.97-1.01-4.7-4.9-.45-2.43-.45-6.15-.45-8.54,0-2.59,0-5.26.32-7.45.77-4.82,3.81-5.18,4.82-5.18,1.34,0,4.01.73,4.78,4.74.41,2.27.41,5.34.41,7.9,0,3.04,0,5.79-.45,8.38-.61,3.85-2.91,5.06-4.74,5.06M950.58,299.25c0-3.24-.2-6.48-1.62-9.47-1.86-3.89-5.18-4.54-6.88-4.54-2.43,0-5.38,1.05-7.04,4.82-1.3,2.79-1.5,5.95-1.5,9.19,0,3.04.16,6.68,1.82,9.76,1.74,3.28,4.7,4.09,6.68,4.09,2.19,0,5.26-.85,7.05-4.7,1.29-2.79,1.5-5.95,1.5-9.15Z"/><path d="M963.99,302.09c0-3.16-.44-8.06-2.67-12.63-2.43-4.98-5.91-7.61-6.32-7.61-.24,0-.4.16-.4.41,0,.12,0,.2.77.93,3.97,4.01,6.27,10.45,6.27,18.91,0,6.92-1.5,14.05-6.52,19.15-.53.49-.53.57-.53.69,0,.24.16.4.4.4.4,0,4.05-2.75,6.44-7.89,2.06-4.45,2.55-8.95,2.55-12.35"/></g><polygon class="cls-6" points="553.44 75.51 553.44 75.51 553.44 75.51 553.44 75.51 553.44 75.51 553.44 75.51 553.44 75.51 553.44 75.51 553.44 75.51 553.44 75.51 553.44 75.51 553.44 75.51 553.44 75.51 553.44 75.51 553.44 75.51 553.44 75.51 553.44 75.51 553.44 75.51 553.44 75.51 553.44 75.51 553.44 75.51 553.44 75.51 553.44 75.51 553.44 75.51 553.44 75.51 553.44 75.51 553.44 75.51 553.44 75.51 553.44 75.51 553.44 75.51 553.44 75.51 553.44 75.51 553.44 75.51 553.44 75.51 553.44 75.51 553.44 75.51 553.44 75.51 553.44 75.51 553.44 75.51 553.44 75.51 553.44 75.51 553.44 75.51 553.44 75.51 553.44 75.51 553.44 75.51 553.44 75.51 553.44 75.51 553.44 75.51 553.44 75.51 553.44 75.51 553.44 75.51 553.44 75.51 553.44 75.51 553.44 75.51 553.44 75.51 553.44 75.51 553.44 75.51 553.44 75.51 553.44 75.51 553.44 75.51 553.44 75.51 553.44 75.51 553.44 75.51 553.44 75.51 553.44 75.51 553.44 75.51 553.44 75.51 553.44 75.51 553.44 75.51 553.44 75.51 553.44 75.51 553.44 75.51 553.44 75.51 553.44 75.51 553.44 75.51 553.44 75.51 553.44 75.51 553.44 75.51 553.44 75.51 553.44 75.51 553.44 75.51 553.44 75.51 553.44 75.51 553.44 75.51 553.44 75.51 553.44 75.51 553.44 75.51 553.44 75.51 553.44 75.51 553.44 75.51 553.44 75.51 553.44 75.51 553.44 75.51 553.44 75.51 553.44 75.51 553.44 75.51 553.44 75.51 553.44 75.51 553.44 75.51 553.44 75.51 553.44 75.51 553.44 75.51 553.44 75.51 553.44 75.51 553.44 75.51 553.44 75.51 553.44 75.51 553.44 75.51 553.44 75.51 553.44 75.51 553.44 75.51 553.44 75.51 553.44 75.51 553.44 75.51 553.44 75.51 553.44 75.51 553.44 75.51 553.44 75.51 553.44 75.51 553.44 75.51 553.44 75.51 553.44 75.51 553.44 75.51 553.44 75.51 553.44 75.51 553.44 75.51 553.44 75.51 553.44 75.51 553.44 75.51 553.44 75.51 553.44 75.51 553.44 75.51 553.44 75.51 553.44 75.51 553.44 75.51 553.44 75.51 553.44 75.51"/><g class="cls-8"><path d="M7.64,75.03c2.71-4.22,3.57-7.43,4.22-10.09,1.76-6.93,3.67-12.95,6.78-16.42.6-.65,1-1.11,2.61-1.11,3.46,0,3.57,3.46,3.57,4.17,0,.9-.25,1.61-.25,1.86,0,.35.3.35.35.35.8,0,2.16-.55,3.41-1.46.9-.7,1.35-1.2,1.35-3.26,0-2.71-1.4-4.77-4.22-4.77-1.61,0-6.02.4-10.94,5.37-4.02,4.12-6.38,13.15-7.33,16.92-.9,3.46-1.31,5.02-2.81,8.03-.35.6-1.66,2.81-2.36,3.46-1.35,1.25-1.86,2.16-1.86,2.41,0,.1.1.3.45.3.2,0,1.25-.2,2.56-1.05.85-.5.95-.6,2.11-1.81,2.51.05,4.27.5,7.43,1.4,2.56.7,5.12,1.46,7.68,1.46,4.07,0,8.18-3.06,9.79-5.27,1-1.35,1.3-2.61,1.3-2.76,0-.35-.3-.35-.35-.35-.8,0-2.01.55-2.86,1.15-1.35.85-1.46,1.16-1.76,2.01-.25.8-.55,1.2-.75,1.51-.4.6-.45.6-1.21.6-2.41,0-4.92-.75-8.23-1.66-1.4-.4-4.17-1.2-6.68-1.2-.65,0-1.35.05-2.01.2"/><path d="M81.74,73.02c.7,0,1.66,0,1.66-1s-.95-1-1.71-1h-29.97c-.75,0-1.71,0-1.71,1s.95,1,1.66,1h30.07M81.69,63.28c.75,0,1.71,0,1.71-1s-.95-1-1.66-1h-30.07c-.7,0-1.66,0-1.66,1s.95,1,1.71,1h29.97Z"/><path d="M133.37,68.15c.85,0,1.76,0,1.76-1s-.9-1-1.76-1h-27.16c-.85,0-1.76,0-1.76,1s.9,1,1.76,1h27.16"/><path d="M156.51,44.85l-7.23.55v1.56c3.51,0,3.91.35,3.91,2.81v26.11c0,2.26-.55,2.26-3.91,2.26v1.56c1.66-.05,4.32-.15,5.57-.15s3.72.1,5.57.15v-1.56c-3.36,0-3.92,0-3.92-2.26v-31.03"/><path d="M174.19,78.99c-2.16,0-4.37-1.05-5.72-3.36-1.26-2.21-1.26-5.27-1.26-7.08,0-1.96,0-4.67,1.21-6.88,1.35-2.31,3.72-3.36,5.72-3.36,2.21,0,4.37,1.11,5.68,3.26,1.3,2.16,1.3,5.07,1.3,6.98,0,1.81,0,4.52-1.11,6.73-1.1,2.26-3.31,3.72-5.82,3.72M185.28,68.95c0-6.43-5.02-11.75-11.1-11.75s-11.15,5.47-11.15,11.75,5.22,11.29,11.1,11.29,11.15-4.92,11.15-11.29Z"/><path d="M199.26,88.88c-5.07,0-8.54-2.56-8.54-5.22,0-2.31,1.91-4.17,4.12-4.32h2.96c4.32,0,9.94,0,9.94,4.32,0,2.71-3.57,5.22-8.49,5.22M192.03,73.02c0-.2,0-1.36.85-2.36,1.96,1.41,4.02,1.56,4.97,1.56,4.67,0,8.13-3.46,8.13-7.33,0-1.86-.8-3.71-2.06-4.87,1.81-1.71,3.61-1.96,4.52-1.96.1,0,.35,0,.5.05-.55.2-.8.76-.8,1.36,0,.85.65,1.46,1.46,1.46.5,0,1.46-.35,1.46-1.51,0-.85-.6-2.46-2.56-2.46-1,0-3.21.3-5.32,2.36-2.11-1.66-4.22-1.81-5.32-1.81-4.67,0-8.13,3.46-8.13,7.33,0,2.21,1.11,4.12,2.36,5.17-.65.76-1.56,2.41-1.56,4.17,0,1.56.65,3.46,2.21,4.47-3.01.85-4.62,3.01-4.62,5.02,0,3.62,4.97,6.38,11.1,6.38s11.15-2.56,11.15-6.48c0-1.76-.7-4.32-3.26-5.72-2.66-1.4-5.57-1.4-8.63-1.4-1.25,0-3.41,0-3.76-.05-1.61-.2-2.66-1.76-2.66-3.36ZM197.85,71.06c-4.37,0-4.37-5.02-4.37-6.18,0-1.35.05-2.96.8-4.22.4-.6,1.55-2.01,3.56-2.01,4.37,0,4.37,5.02,4.37,6.18,0,1.35-.05,2.96-.8,4.22-.4.6-1.56,2.01-3.56,2.01Z"/><path d="M473.58,33.1c1.96-7.63,7.13-8.38,8.43-8.38,2.36,0,3.71,1.46,3.71,3.16,0,5.22-8.03,5.22-10.09,5.22h-2.06M475.94,34.2c1.46,0,5.17-.1,7.68-1.16,3.51-1.51,3.76-4.47,3.76-5.17,0-2.21-1.91-4.27-5.37-4.27-5.57,0-13.16,4.87-13.16,13.66,0,5.12,2.96,9.09,7.88,9.09,7.18,0,11.4-5.32,11.4-5.92,0-.3-.3-.65-.6-.65-.25,0-.35.1-.65.5-3.97,4.97-9.44,4.97-10.04,4.97-3.92,0-4.37-4.22-4.37-5.82,0-.6.05-2.16.8-5.22h2.66Z"/><path d="M505.09,13.96c-.91.21-1.48.95-1.48,1.65,0,.81.71,1.12,1.16,1.12.35,0,1.69-.21,1.69-2,0-2.28-2.53-3.06-4.67-3.06-5.48,0-6.47,4.04-6.47,5.13,0,1.3.74,2.14,1.23,2.57.91.7,1.54.84,3.97,1.26.74.14,2.99.56,2.99,2.32,0,.6-.39,1.93-1.86,2.81-1.37.77-3.09.77-3.52.77-1.4,0-3.41-.32-4.21-1.48,1.16-.14,1.93-1.02,1.93-2,0-.88-.63-1.3-1.37-1.3-1.02,0-2.04.81-2.04,2.35,0,2.11,2.25,3.41,5.66,3.41,6.47,0,7.66-4.43,7.66-5.8,0-3.23-3.55-3.86-4.85-4.11-.32-.07-1.19-.21-1.4-.28-1.3-.25-1.93-.98-1.93-1.76s.63-1.76,1.41-2.25c.95-.6,2.18-.67,2.78-.67.74,0,2.57.11,3.34,1.3"/><path d="M521.47.82c-6.67,4.71-8.43,12.16-8.43,17.54,0,4.95,1.47,12.65,8.43,17.57.28,0,.7,0,.7-.42,0-.21-.11-.28-.35-.53-4.68-4.22-6.4-10.19-6.4-16.59,0-9.49,3.62-14.13,6.5-16.73.14-.14.25-.25.25-.42,0-.42-.42-.42-.7-.42"/><path d="M538.35,13.15c-.63.28-.98.84-.98,1.55,0,.95.67,1.65,1.65,1.65s1.69-.6,1.69-1.72c0-3.13-4.89-3.13-5.87-3.13-5.27,0-8.54,4.04-8.54,8.08,0,4.43,3.76,7.94,8.36,7.94,5.24,0,6.47-4.15,6.47-4.57s-.46-.42-.6-.42c-.46,0-.49.11-.67.6-.77,2.18-2.63,3.27-4.78,3.27-2.43,0-5.59-1.79-5.59-6.85,0-4.46,2.18-6.92,5.45-6.92.46,0,2.14,0,3.41.53"/><path d="M552.59,26.4c-1.3,0-3.2-.42-4.36-2.14-.95-1.44-1.05-3.27-1.05-4.88,0-1.51.04-3.58,1.27-5.09.88-1.02,2.35-1.79,4.14-1.79,2.07,0,3.55.98,4.32,2.07.98,1.37,1.09,3.13,1.09,4.81s-.11,3.55-1.12,4.99c-.95,1.34-2.56,2.04-4.29,2.04M561.2,19.69c0-4.39-3.76-8.19-8.61-8.19s-8.61,3.8-8.61,8.19,3.87,7.84,8.61,7.84,8.61-3.48,8.61-7.84Z"/><path d="M575.82,12.41c0-.6,0-.91-.49-.91-.18,0-.25,0-.7.42-.07.04-.42.35-.63.53-1.05-.74-2.39-.95-3.69-.95-5.02,0-6.22,2.64-6.22,4.39,0,1.12.49,2.04,1.33,2.74,1.33,1.16,2.67,1.4,4.85,1.76,1.76.32,4.6.81,4.6,3.16,0,1.37-.95,2.99-4.32,2.99s-4.6-2.21-5.23-4.6c-.11-.46-.14-.6-.63-.6-.6,0-.6.25-.6.95v4.32c0,.6,0,.91.49.91.32,0,.98-.74,1.69-1.51,1.55,1.44,3.45,1.51,4.29,1.51,4.57,0,6.26-2.46,6.26-4.96,0-1.33-.6-2.39-1.51-3.23-1.33-1.23-2.95-1.51-4.18-1.72-2.81-.49-5.1-.91-5.1-2.78,0-1.12.95-2.49,4.29-2.49,4.08,0,4.25,2.84,4.32,3.86.04.39.46.39.6.39.6,0,.6-.25.6-.91v-3.27"/><path d="M599.31,15.61c-.98,3.83-1.79,5.73-2.85,7.45-1.09,1.83-2.49,3.48-4.04,3.48-1.93,0-2.25-2.67-2.25-4.57,0-2.32.67-5.06,1.02-6.36h8.12M591.51,14.35c1.79-7.59,4.81-10.93,6.89-10.93,2.25,0,2.25,3.9,2.25,4.57,0,1.37-.28,3.41-1.02,6.36h-8.12ZM603.28,10.06c0-3.69-1.4-7.63-4.85-7.63-5.27,0-10.89,9.42-10.89,17.47,0,4.18,1.61,7.63,4.85,7.63,5.34,0,10.89-9.59,10.89-17.47Z"/><path d="M621.13,22.85c.1-.38.1-.55.1-.58,0-.55-.45-.88-.93-.88-1,0-1.21.88-1.38,1.56l-.53,2.08-.78,3.14c-.1.33-.23.85-.25,1-.02.1-1.38,2.46-3.51,2.46-1.15,0-2.06-.55-2.06-2.16,0-1.38.75-3.21,1.48-5.02.13-.3.3-.7.3-1.13,0-1.23-1.18-2.21-2.74-2.21-2.63,0-4.04,3.21-4.04,3.89,0,.35.4.35.53.35.43,0,.45-.12.58-.5.53-1.73,1.7-2.89,2.83-2.89.48,0,.75.28.75.95,0,.5-.15.85-.33,1.3-1.23,2.99-1.46,3.89-1.46,4.89,0,2.78,2.33,3.36,4.02,3.36,1.43,0,2.48-.7,3.11-1.23-.35,1.41-.63,2.51-1.81,3.71-.58.58-1.76,1.53-3.31,1.53-.45,0-1.38-.08-1.96-.6,1.13-.28,1.26-1.25,1.26-1.51,0-.73-.58-1.03-1.11-1.03-.73,0-1.58.6-1.58,1.76,0,1.25,1.28,2.23,3.39,2.23,2.86,0,6.25-1.91,7.05-5.12l2.36-9.38"/><path d="M633.98,36.73c0-.35-.43-.35-.53-.35-.42,0-.45.1-.6.58-.43,1.38-1.56,2.81-2.81,2.81-.58,0-.75-.4-.75-.95s.12-.8.33-1.28c.2-.5.4-1,.53-1.35.1-.23,1.08-2.56,1.43-3.46.2-.5.35-.83.35-1.26,0-1.2-1.15-2.21-2.74-2.21-2.63,0-4.04,3.21-4.04,3.89,0,.35.4.35.53.35.43,0,.45-.12.58-.5.55-1.78,1.76-2.89,2.83-2.89.48,0,.75.28.75.95,0,.1,0,.43-.15.9-.18.45-1.31,3.14-1.66,3.99-.18.42-.18.47-.55,1.33-.13.35-.28.7-.28,1.13,0,1.3,1.23,2.21,2.73,2.21,2.63,0,4.04-3.26,4.04-3.89M632.8,24.68c0-.6-.45-1.08-1.1-1.08-.7,0-1.53.68-1.53,1.5,0,.7.55,1.08,1.08,1.08.83,0,1.56-.75,1.56-1.5Z"/><path d="M657.48,19.23h10.75c.46,0,1.3,0,1.3-.84s-.81-.88-1.3-.88h-10.75V6.72c0-.46,0-1.3-.84-1.3s-.88.81-.88,1.3v10.79h-10.79c-.46,0-1.3,0-1.3.84s.81.88,1.3.88h10.79v10.79c0,.46,0,1.3.84,1.3s.88-.81.88-1.3v-10.79"/><path d="M684.61,22.78c-.25.98-1.02,1.69-1.79,2.35-.32.28-1.72,1.4-3.23,1.4-1.3,0-2.56-.91-2.56-3.41,0-1.86,1.02-5.73,1.83-7.13,1.62-2.81,3.41-3.34,4.39-3.34,2.46,0,3.13,2.67,3.13,3.06,0,.14-.07.39-.11.49l-1.65,6.57M692.09,3.84c.04-.07.14-.53.14-.56,0-.18-.14-.49-.56-.49-.7,0-3.62.28-4.5.35-.28.04-.77.07-.77.81,0,.49.49.49.91.49,1.69,0,1.69.25,1.69.53,0,.25-.07.46-.14.77l-2,8.01c-.74-1.16-1.93-2.07-3.62-2.07-4.5,0-9.06,4.95-9.06,10.01,0,3.41,2.28,5.83,5.31,5.83,1.9,0,3.58-1.09,4.99-2.46.67,2.11,2.71,2.46,3.62,2.46,1.26,0,2.14-.77,2.78-1.86.77-1.37,1.23-3.37,1.23-3.51,0-.46-.46-.46-.56-.46-.49,0-.53.14-.77,1.09-.42,1.69-1.09,3.76-2.57,3.76-.91,0-1.16-.77-1.16-1.72,0-.67.07-.98.18-1.44l4.89-19.54Z"/><path d="M705.96,22.53c-.45.13-1.16.65-1.16,1.51,0,.65.48,1.03,1.11,1.03s1.56-.47,1.56-1.73c0-1.88-2.44-2.21-3.82-2.21-4.24,0-7.93,3.46-7.93,6.8,0,2.18,1.61,4.57,5.4,4.57.48,0,2.48,0,4.19-.65,1.68-.65,2.68-1.81,2.68-2.08,0-.2-.33-.58-.55-.58-.12,0-.15.02-.55.43-1.13,1.28-3.24,2.03-5.75,2.03-2.11,0-3.11-1.18-3.11-2.91,0-2.56,1.65-6.75,5.62-6.75.28,0,1.53,0,2.31.55"/><path d="M719.78,18.39c0-1.26-1.05-2.04-2-2.04-1.16,0-2.04.95-2.04,2,0,1.26,1.06,2.04,2.01,2.04,1.16,0,2.04-.95,2.04-2"/><path d="M738.96,24.33c-.18.7-.49,1.9-.49,2.07,0,.77.63,1.12,1.19,1.12.63,0,1.19-.46,1.37-.77.18-.32.46-1.44.63-2.18.18-.67.56-2.28.77-3.16.21-.77.42-1.55.6-2.35.39-1.51.39-1.58,1.09-2.67,1.12-1.72,2.88-3.72,5.62-3.72,1.97,0,2.07,1.62,2.07,2.46,0,2.11-1.51,6.01-2.07,7.49-.39.98-.53,1.3-.53,1.9,0,1.86,1.54,3.02,3.34,3.02,3.52,0,5.06-4.85,5.06-5.38,0-.46-.46-.46-.56-.46-.49,0-.53.21-.67.6-.81,2.81-2.32,4.25-3.73,4.25-.74,0-.88-.49-.88-1.23,0-.81.18-1.26.81-2.85.42-1.09,1.86-4.81,1.86-6.78,0-.56,0-2.04-1.3-3.06-.6-.46-1.61-.95-3.27-.95-3.16,0-5.09,2.07-6.22,3.55-.28-2.99-2.78-3.55-4.57-3.55-2.92,0-4.88,1.79-5.94,3.2-.25-2.42-2.32-3.2-3.76-3.2s-2.32,1.09-2.77,1.9c-.77,1.3-1.26,3.3-1.26,3.48,0,.46.49.46.6.46.49,0,.53-.11.77-1.05.53-2.07,1.19-3.79,2.56-3.79.91,0,1.16.77,1.16,1.72,0,.67-.32,1.97-.56,2.92-.25.95-.6,2.39-.77,3.16l-1.12,4.5c-.14.46-.35,1.34-.35,1.44,0,.77.63,1.12,1.2,1.12.63,0,1.19-.46,1.37-.77.18-.32.46-1.44.63-2.18.18-.67.56-2.28.77-3.16.21-.77.42-1.55.6-2.35.39-1.44.46-1.72,1.47-3.16.98-1.41,2.64-3.23,5.27-3.23,2.04,0,2.07,1.79,2.07,2.46,0,.88-.11,1.34-.6,3.3l-1.47,5.9"/><path d="M762.59.82c-.25,0-.67,0-.67.42,0,.18.11.28.32.53,3.02,2.78,6.39,7.52,6.39,16.59,0,7.34-2.28,12.9-6.08,16.34-.6.6-.63.63-.63.81s.11.42.46.42c.42,0,3.76-2.32,6.08-6.71,1.55-2.92,2.57-6.71,2.57-10.82,0-4.96-1.47-12.65-8.43-17.57"/><line class="cls-3" x1="226.97" y1="67.16" x2="1017.24" y2="67.16"/><path d="M233.93,113.92c1.96-7.63,7.13-8.38,8.43-8.38,2.36,0,3.71,1.46,3.71,3.16,0,5.22-8.03,5.22-10.09,5.22h-2.06M236.29,115.02c1.46,0,5.17-.1,7.68-1.16,3.51-1.51,3.76-4.47,3.76-5.17,0-2.21-1.91-4.27-5.37-4.27-5.57,0-13.16,4.87-13.16,13.66,0,5.12,2.96,9.09,7.88,9.09,7.18,0,11.4-5.32,11.4-5.92,0-.3-.3-.65-.6-.65-.25,0-.35.1-.65.5-3.97,4.97-9.44,4.97-10.04,4.97-3.92,0-4.37-4.22-4.37-5.82,0-.6.05-2.16.8-5.22h2.66Z"/><path d="M265.44,94.92c-.91.21-1.48.95-1.48,1.65,0,.81.71,1.12,1.16,1.12.35,0,1.69-.21,1.69-2,0-2.28-2.53-3.06-4.67-3.06-5.48,0-6.47,4.04-6.47,5.13,0,1.3.74,2.14,1.23,2.56.91.7,1.54.84,3.97,1.26.74.14,2.99.56,2.99,2.32,0,.6-.39,1.93-1.86,2.81-1.37.77-3.09.77-3.52.77-1.4,0-3.41-.32-4.21-1.48,1.16-.14,1.93-1.02,1.93-2,0-.88-.63-1.3-1.37-1.3-1.02,0-2.04.81-2.04,2.35,0,2.11,2.25,3.41,5.66,3.41,6.47,0,7.66-4.43,7.66-5.8,0-3.23-3.55-3.86-4.85-4.11-.32-.07-1.19-.21-1.4-.28-1.3-.25-1.93-.98-1.93-1.76s.63-1.76,1.41-2.25c.95-.6,2.18-.67,2.78-.67.74,0,2.57.11,3.34,1.3"/><path d="M281.82,81.77c-6.67,4.71-8.43,12.16-8.43,17.54,0,4.95,1.47,12.65,8.43,17.57.28,0,.7,0,.7-.42,0-.21-.11-.28-.35-.53-4.68-4.22-6.4-10.19-6.4-16.59,0-9.49,3.62-14.13,6.5-16.73.14-.14.25-.25.25-.42,0-.42-.42-.42-.7-.42"/><path d="M298.7,94.11c-.63.28-.98.84-.98,1.55,0,.95.67,1.65,1.65,1.65s1.69-.6,1.69-1.72c0-3.13-4.89-3.13-5.87-3.13-5.27,0-8.54,4.04-8.54,8.08,0,4.43,3.76,7.94,8.36,7.94,5.24,0,6.47-4.15,6.47-4.57s-.46-.42-.6-.42c-.46,0-.49.11-.67.6-.77,2.18-2.63,3.27-4.78,3.27-2.43,0-5.59-1.79-5.59-6.85,0-4.46,2.18-6.92,5.45-6.92.46,0,2.14,0,3.41.53"/><path d="M312.94,107.36c-1.3,0-3.2-.42-4.36-2.14-.95-1.44-1.05-3.27-1.05-4.88,0-1.51.04-3.58,1.27-5.09.88-1.02,2.35-1.79,4.14-1.79,2.07,0,3.55.98,4.32,2.07.98,1.37,1.09,3.13,1.09,4.81s-.11,3.55-1.12,4.99c-.95,1.34-2.56,2.04-4.29,2.04M321.55,100.64c0-4.39-3.76-8.19-8.61-8.19s-8.61,3.8-8.61,8.19,3.87,7.84,8.61,7.84,8.61-3.48,8.61-7.84Z"/><path d="M336.31,93.37c0-.6,0-.91-.49-.91-.18,0-.25,0-.7.42-.07.04-.42.35-.63.53-1.05-.74-2.39-.95-3.69-.95-5.02,0-6.22,2.64-6.22,4.39,0,1.12.49,2.04,1.33,2.74,1.33,1.16,2.67,1.4,4.85,1.76,1.76.32,4.6.81,4.6,3.16,0,1.37-.95,2.99-4.32,2.99s-4.6-2.21-5.23-4.6c-.11-.46-.14-.6-.63-.6-.6,0-.6.25-.6.95v4.32c0,.6,0,.91.49.91.32,0,.98-.74,1.69-1.51,1.55,1.44,3.45,1.51,4.29,1.51,4.57,0,6.26-2.46,6.26-4.96,0-1.33-.6-2.39-1.51-3.23-1.33-1.23-2.95-1.51-4.18-1.72-2.81-.49-5.1-.91-5.1-2.78,0-1.12.95-2.49,4.29-2.49,4.08,0,4.25,2.84,4.32,3.86.04.39.46.39.6.39.6,0,.6-.25.6-.91v-3.27"/><path d="M359.66,96.57c-.98,3.83-1.79,5.73-2.85,7.45-1.09,1.83-2.49,3.48-4.04,3.48-1.93,0-2.25-2.67-2.25-4.57,0-2.32.67-5.06,1.02-6.36h8.12M351.86,95.3c1.79-7.59,4.81-10.93,6.89-10.93,2.25,0,2.25,3.9,2.25,4.57,0,1.37-.28,3.41-1.02,6.36h-8.12ZM363.63,91.02c0-3.69-1.4-7.63-4.85-7.63-5.27,0-10.89,9.42-10.89,17.47,0,4.18,1.61,7.63,4.85,7.63,5.34,0,10.89-9.59,10.89-17.47Z"/><path d="M381.48,103.81c.1-.38.1-.55.1-.58,0-.55-.45-.88-.93-.88-1,0-1.21.88-1.38,1.56l-.53,2.08-.78,3.14c-.1.33-.23.85-.25,1-.02.1-1.38,2.46-3.51,2.46-1.15,0-2.06-.55-2.06-2.16,0-1.38.75-3.21,1.48-5.02.13-.3.3-.7.3-1.13,0-1.23-1.18-2.21-2.74-2.21-2.63,0-4.04,3.21-4.04,3.89,0,.35.4.35.53.35.43,0,.45-.12.58-.5.53-1.73,1.7-2.89,2.83-2.89.48,0,.75.28.75.95,0,.5-.15.85-.33,1.3-1.23,2.99-1.46,3.89-1.46,4.89,0,2.78,2.33,3.36,4.02,3.36,1.43,0,2.48-.7,3.11-1.23-.35,1.41-.63,2.51-1.81,3.71-.58.58-1.76,1.53-3.31,1.53-.45,0-1.38-.08-1.96-.6,1.13-.28,1.26-1.25,1.26-1.51,0-.73-.58-1.03-1.11-1.03-.73,0-1.58.6-1.58,1.76,0,1.25,1.28,2.23,3.39,2.23,2.86,0,6.25-1.91,7.05-5.12l2.36-9.38"/><path d="M394.33,117.68c0-.35-.43-.35-.53-.35-.42,0-.45.1-.6.58-.43,1.38-1.56,2.81-2.81,2.81-.58,0-.75-.4-.75-.95s.12-.8.33-1.28c.2-.5.4-1,.53-1.35.1-.23,1.08-2.56,1.43-3.46.2-.5.35-.83.35-1.26,0-1.2-1.15-2.21-2.74-2.21-2.63,0-4.04,3.21-4.04,3.89,0,.35.4.35.53.35.43,0,.45-.12.58-.5.55-1.78,1.75-2.89,2.83-2.89.48,0,.75.28.75.95,0,.1,0,.43-.15.9-.18.45-1.31,3.14-1.66,3.99-.18.42-.18.47-.55,1.33-.13.35-.28.7-.28,1.13,0,1.3,1.23,2.21,2.73,2.21,2.63,0,4.04-3.26,4.04-3.89M393.15,105.64c0-.6-.45-1.08-1.1-1.08-.7,0-1.53.68-1.53,1.5,0,.7.55,1.08,1.08,1.08.83,0,1.56-.75,1.56-1.5Z"/><path d="M417.84,100.19h10.75c.46,0,1.3,0,1.3-.84s-.81-.88-1.3-.88h-10.75v-10.79c0-.46,0-1.3-.84-1.3s-.88.81-.88,1.3v10.79h-10.79c-.46,0-1.3,0-1.3.84s.81.88,1.3.88h10.79v10.79c0,.46,0,1.3.84,1.3s.88-.81.88-1.3v-10.79"/><path d="M444.96,103.74c-.25.98-1.02,1.69-1.79,2.35-.32.28-1.72,1.4-3.23,1.4-1.3,0-2.56-.91-2.56-3.41,0-1.86,1.02-5.73,1.83-7.13,1.62-2.81,3.41-3.34,4.39-3.34,2.46,0,3.13,2.67,3.13,3.06,0,.14-.07.39-.11.49l-1.65,6.57M452.44,84.8c.04-.07.14-.53.14-.56,0-.18-.14-.49-.56-.49-.7,0-3.62.28-4.5.35-.28.04-.77.07-.77.81,0,.49.49.49.91.49,1.69,0,1.69.25,1.69.53,0,.25-.07.46-.14.77l-2,8.01c-.74-1.16-1.93-2.07-3.62-2.07-4.5,0-9.06,4.95-9.06,10.01,0,3.41,2.28,5.83,5.31,5.83,1.9,0,3.58-1.09,4.99-2.46.67,2.11,2.71,2.46,3.62,2.46,1.26,0,2.14-.77,2.78-1.86.77-1.37,1.23-3.37,1.23-3.51,0-.46-.46-.46-.56-.46-.49,0-.53.14-.77,1.09-.42,1.69-1.09,3.76-2.57,3.76-.91,0-1.16-.77-1.16-1.72,0-.67.07-.98.18-1.44l4.89-19.54Z"/><path d="M466.31,103.49c-.45.13-1.16.65-1.16,1.51,0,.65.48,1.03,1.11,1.03s1.56-.47,1.56-1.73c0-1.88-2.44-2.21-3.82-2.21-4.24,0-7.93,3.46-7.93,6.8,0,2.18,1.61,4.57,5.4,4.57.48,0,2.48,0,4.19-.65,1.68-.65,2.68-1.81,2.68-2.08,0-.2-.33-.58-.55-.58-.12,0-.15.02-.55.43-1.13,1.28-3.24,2.03-5.75,2.03-2.11,0-3.11-1.18-3.11-2.91,0-2.56,1.65-6.75,5.62-6.75.28,0,1.53,0,2.31.55"/><path d="M480.13,99.34c0-1.26-1.05-2.04-2-2.04-1.16,0-2.04.95-2.04,2,0,1.26,1.06,2.04,2.01,2.04,1.16,0,2.04-.95,2.04-2"/><path d="M499.31,105.28c-.18.7-.49,1.9-.49,2.07,0,.77.63,1.12,1.19,1.12.63,0,1.19-.46,1.37-.77.18-.32.46-1.44.63-2.18.18-.67.56-2.28.77-3.16.21-.77.42-1.55.6-2.35.39-1.51.39-1.58,1.09-2.67,1.12-1.72,2.88-3.72,5.62-3.72,1.97,0,2.07,1.62,2.07,2.46,0,2.11-1.51,6.01-2.07,7.49-.39.98-.53,1.3-.53,1.9,0,1.86,1.54,3.02,3.34,3.02,3.52,0,5.06-4.85,5.06-5.38,0-.46-.46-.46-.56-.46-.49,0-.53.21-.67.6-.81,2.81-2.32,4.25-3.73,4.25-.74,0-.88-.49-.88-1.23,0-.81.18-1.26.81-2.85.42-1.09,1.86-4.81,1.86-6.78,0-.56,0-2.04-1.3-3.06-.6-.46-1.61-.95-3.27-.95-3.16,0-5.09,2.07-6.22,3.55-.28-2.99-2.78-3.55-4.57-3.55-2.92,0-4.88,1.79-5.94,3.2-.25-2.42-2.32-3.2-3.76-3.2s-2.32,1.09-2.77,1.9c-.77,1.3-1.26,3.3-1.26,3.48,0,.46.49.46.6.46.49,0,.53-.11.77-1.05.53-2.07,1.19-3.79,2.56-3.79.91,0,1.16.77,1.16,1.72,0,.67-.32,1.97-.56,2.92-.25.95-.6,2.39-.77,3.16l-1.12,4.5c-.14.46-.35,1.34-.35,1.44,0,.77.63,1.12,1.2,1.12.63,0,1.19-.46,1.37-.77.18-.32.46-1.44.63-2.18.18-.67.56-2.28.77-3.16.21-.77.42-1.55.6-2.35.39-1.44.46-1.72,1.47-3.16.98-1.41,2.64-3.23,5.27-3.23,2.04,0,2.07,1.79,2.07,2.46,0,.88-.11,1.34-.6,3.3l-1.47,5.9"/><path d="M522.94,81.77c-.25,0-.67,0-.67.42,0,.18.11.28.32.53,3.02,2.78,6.39,7.52,6.39,16.59,0,7.34-2.28,12.9-6.08,16.34-.6.6-.63.63-.63.81s.11.42.46.42c.42,0,3.76-2.32,6.08-6.71,1.55-2.92,2.57-6.71,2.57-10.82,0-4.96-1.47-12.65-8.43-17.57"/><path d="M569.59,115.07h14.01c.7,0,1.66,0,1.66-1s-.95-1-1.66-1h-14.01v-14.06c0-.7,0-1.66-1-1.66s-1,.95-1,1.66v14.06h-14.06c-.7,0-1.66,0-1.66,1s.95,1,1.66,1h14.06v14.06c0,.7,0,1.66,1,1.66s1-.95,1-1.66v-14.06"/><path d="M620.47,115.75l-17.82,22.04c-.4.5-.45.6-.45.8,0,.55.45.55,1.35.55h41.62l4.32-12.5h-1.26c-1.25,3.76-4.62,6.83-8.89,8.28-.8.25-4.27,1.46-11.65,1.46h-21.34l17.42-21.54c.35-.45.45-.6.45-.8s-.05-.25-.35-.7l-16.32-22.39h19.88c5.72,0,17.27.35,20.79,9.74h1.26l-4.32-11.75h-41.62c-1.35,0-1.4.05-1.4,1.61l18.32,25.2"/><path d="M659.24,75.58c0-.53,0-1.37-.84-1.37s-.88.81-.88,1.37v32.4c0,.53,0,1.37.84,1.37s.88-.81.88-1.37v-32.4"/><path d="M693.95,76.32c0-.18-.11-.46-.46-.46-.25,0-.32.07-.63.42l-2.56,2.71c-.32-.42-2.28-3.13-6.61-3.13-8.54,0-16.9,7.55-16.9,15.5,0,5.73,4.5,9.91,10.79,9.91,1.9,0,5.27-.39,8.89-3.44,2.78-2.35,3.55-5.41,3.55-5.69,0-.46-.42-.46-.6-.46-.46,0-.53.18-.63.56-1.44,4.81-6.36,7.77-10.61,7.77-3.72,0-7.87-2-7.87-7.55,0-1.02.25-6.57,4.29-11,2.42-2.71,6.11-4.32,9.45-4.32,4.08,0,6.47,2.95,6.47,6.89,0,.98-.11,1.23-.11,1.44,0,.46.46.46.63.46.56,0,.56-.11.74-.77l2.18-8.82"/><path d="M702.38,75.58c0-.53,0-1.37-.84-1.37s-.88.81-.88,1.37v32.4c0,.53,0,1.37.84,1.37s.88-.81.88-1.37v-32.4"/><path d="M660.4,143.47c-.6,2.42-2.46,4.46-4.53,4.46-.46,0-.88-.07-1.26-.21.91-.42,1.19-1.26,1.19-1.79,0-.84-.67-1.3-1.37-1.3-1.09,0-2,.95-2,2.07,0,1.33,1.37,2.21,3.48,2.21s6.22-1.26,7.31-5.55l3.16-12.58c.11-.39.18-.7.18-1.23,0-1.93-1.65-3.3-3.76-3.3-3.9,0-6.15,4.88-6.15,5.37,0,.46.49.46.6.46.42,0,.46-.11.7-.63.88-2.04,2.7-4.22,4.75-4.22.88,0,1.19.6,1.19,1.72,0,.39-.07.88-.11,1.05l-3.38,13.46M667.85,119.78c0-.6-.46-1.33-1.4-1.33-1.02,0-1.97.98-1.97,1.93,0,.56.42,1.33,1.4,1.33s1.97-.91,1.97-1.93Z"/><path d="M698.07,137.67c.46,0,1.3,0,1.3-.84s-.81-.88-1.33-.88h-23.19c-.53,0-1.33,0-1.33.88s.84.84,1.3.84h23.26M698.04,129.94c.53,0,1.33,0,1.33-.88s-.84-.84-1.3-.84h-23.26c-.46,0-1.3,0-1.3.84s.81.88,1.33.88h23.19Z"/><path d="M713.63,119.39c0-.95-.07-.98-1.05-.98-2.25,2.21-5.45,2.25-6.89,2.25v1.27c.85,0,3.16,0,5.1-.98v17.92c0,1.16,0,1.62-3.51,1.62h-1.33v1.26c.63-.04,4.95-.14,6.26-.14,1.09,0,5.52.11,6.29.14v-1.26h-1.33c-3.51,0-3.51-.46-3.51-1.62v-19.47"/><path d="M729.31,141.18c0,1.93-.35,4.18-2.74,6.43-.14.14-.25.25-.25.42,0,.25.28.49.49.49.49,0,3.48-2.81,3.48-6.99,0-2.18-.84-3.83-2.46-3.83-1.16,0-2.01.91-2.01,2s.81,2.04,2.04,2.04c.84,0,1.4-.56,1.44-.56"/><path d="M741.77,143.47c-.6,2.42-2.46,4.46-4.53,4.46-.46,0-.88-.07-1.26-.21.91-.42,1.19-1.26,1.19-1.79,0-.84-.67-1.3-1.37-1.3-1.09,0-2,.95-2,2.07,0,1.33,1.37,2.21,3.48,2.21s6.22-1.26,7.31-5.55l3.16-12.58c.11-.39.18-.7.18-1.23,0-1.93-1.65-3.3-3.76-3.3-3.9,0-6.15,4.88-6.15,5.37,0,.46.49.46.6.46.42,0,.46-.11.7-.63.88-2.04,2.7-4.22,4.75-4.22.88,0,1.19.6,1.19,1.72,0,.39-.07.88-.11,1.05l-3.38,13.46M749.22,119.78c0-.6-.46-1.33-1.4-1.33-1.02,0-1.97.98-1.97,1.93,0,.56.42,1.33,1.4,1.33s1.97-.91,1.97-1.93Z"/><path d="M777.52,118.23c.25-.42.28-.53.28-.7,0-.46-.35-.88-.88-.88-.46,0-.7.32-.88.67l-17.36,30.33c-.25.42-.28.53-.28.7,0,.46.35.88.88.88.46,0,.7-.32.88-.67l17.36-30.33"/><path d="M779.45,137.67c.46,0,1.3,0,1.3-.84s-.81-.88-1.33-.88h-23.19c-.53,0-1.33,0-1.33.88s.84.84,1.3.84h23.26M779.41,129.94c.53,0,1.33,0,1.33-.88s-.84-.84-1.3-.84h-23.26c-.46,0-1.3,0-1.3.84s.81.88,1.33.88h23.19Z"/><path d="M802.92,128.5c.14-.49.14-.56.14-.77,0-.7-.56-1.12-1.16-1.12-.39,0-1.05.18-1.44.84-.11.21-.39,1.33-.56,2.04l-.74,2.92c-.21.84-1.3,5.27-1.4,5.66-.04,0-1.58,3.06-4.33,3.06-2.39,0-2.39-2.28-2.39-2.92,0-1.9.81-4.11,1.86-6.82.42-1.12.6-1.55.6-2.14,0-1.69-1.44-2.99-3.34-2.99-3.55,0-5.13,4.78-5.13,5.37,0,.46.49.46.6.46.49,0,.53-.18.63-.56.88-2.92,2.39-4.29,3.79-4.29.6,0,.88.39.88,1.23s-.32,1.58-.49,2.04c-1.69,4.29-2.04,5.59-2.04,7.13,0,.6,0,2.25,1.37,3.37,1.09.91,2.57,1.09,3.51,1.09,1.41,0,2.67-.53,3.83-1.58-.46,1.93-.84,3.41-2.32,5.16-.95,1.09-2.36,2.25-4.22,2.25-.25,0-1.9,0-2.64-1.16,1.9-.21,1.9-1.9,1.9-1.93,0-1.12-1.02-1.33-1.37-1.33-.88,0-2.04.7-2.04,2.32,0,1.79,1.69,3.09,4.18,3.09,3.55,0,7.87-2.74,8.96-7.13l3.34-13.28"/><path d="M814.8,143.17c0-.35-.43-.35-.53-.35-.42,0-.45.1-.6.58-.43,1.38-1.56,2.81-2.81,2.81-.58,0-.75-.4-.75-.95s.12-.8.33-1.28c.2-.5.4-1,.53-1.35.1-.23,1.08-2.56,1.43-3.46.2-.5.35-.83.35-1.26,0-1.2-1.15-2.21-2.74-2.21-2.63,0-4.04,3.21-4.04,3.89,0,.35.4.35.53.35.43,0,.45-.12.58-.5.55-1.78,1.75-2.89,2.83-2.89.48,0,.75.28.75.95,0,.1,0,.43-.15.9-.18.45-1.31,3.14-1.66,3.99-.18.42-.18.47-.55,1.33-.13.35-.28.7-.28,1.13,0,1.3,1.23,2.21,2.73,2.21,2.63,0,4.04-3.26,4.04-3.89M813.62,131.13c0-.6-.45-1.08-1.1-1.08-.7,0-1.53.68-1.53,1.5,0,.7.55,1.08,1.08,1.08.83,0,1.56-.75,1.56-1.5Z"/><path d="M837.47,113.92c1.96-7.63,7.13-8.38,8.43-8.38,2.36,0,3.71,1.46,3.71,3.16,0,5.22-8.03,5.22-10.09,5.22h-2.06M839.83,115.02c1.46,0,5.17-.1,7.68-1.16,3.51-1.51,3.76-4.47,3.76-5.17,0-2.21-1.91-4.27-5.37-4.27-5.57,0-13.16,4.87-13.16,13.66,0,5.12,2.96,9.09,7.88,9.09,7.18,0,11.4-5.32,11.4-5.92,0-.3-.3-.65-.6-.65-.25,0-.35.1-.65.5-3.97,4.97-9.44,4.97-10.04,4.97-3.92,0-4.37-4.22-4.37-5.82,0-.6.05-2.16.8-5.22h2.66Z"/><path d="M868.98,98.14c-.91.21-1.48.95-1.48,1.65,0,.81.71,1.12,1.16,1.12.35,0,1.69-.21,1.69-2,0-2.28-2.53-3.06-4.67-3.06-5.48,0-6.47,4.04-6.47,5.13,0,1.3.74,2.14,1.23,2.56.91.7,1.54.84,3.97,1.26.74.14,2.99.56,2.99,2.32,0,.6-.39,1.93-1.86,2.81-1.37.77-3.09.77-3.52.77-1.4,0-3.41-.32-4.21-1.48,1.16-.14,1.93-1.02,1.93-2,0-.88-.63-1.3-1.37-1.3-1.02,0-2.04.81-2.04,2.35,0,2.11,2.25,3.41,5.66,3.41,6.47,0,7.66-4.43,7.66-5.8,0-3.23-3.55-3.86-4.85-4.11-.32-.07-1.19-.21-1.4-.28-1.3-.25-1.93-.98-1.93-1.76s.63-1.76,1.41-2.25c.95-.6,2.18-.67,2.78-.67.74,0,2.57.11,3.34,1.3"/><path d="M880.86,102.57c0-1.26-1.05-2.04-2-2.04-1.16,0-2.04.95-2.04,2,0,1.26,1.06,2.04,2.01,2.04,1.16,0,2.04-.95,2.04-2"/><path d="M897.26,84.99c-6.67,4.71-8.43,12.16-8.43,17.54,0,4.95,1.47,12.65,8.43,17.57.28,0,.7,0,.7-.42,0-.21-.11-.28-.35-.53-4.68-4.22-6.4-10.19-6.4-16.59,0-9.49,3.62-14.13,6.5-16.73.14-.14.25-.25.25-.42,0-.42-.42-.42-.7-.42"/><path d="M914.14,97.33c-.63.28-.98.84-.98,1.55,0,.95.67,1.65,1.65,1.65s1.69-.6,1.69-1.72c0-3.13-4.89-3.13-5.87-3.13-5.27,0-8.54,4.04-8.54,8.08,0,4.43,3.76,7.94,8.36,7.94,5.24,0,6.47-4.15,6.47-4.57s-.46-.42-.6-.42c-.46,0-.49.11-.67.6-.77,2.18-2.63,3.27-4.78,3.27-2.43,0-5.59-1.79-5.59-6.85,0-4.46,2.18-6.92,5.45-6.92.46,0,2.14,0,3.41.53"/><path d="M928.38,110.58c-1.3,0-3.2-.42-4.36-2.14-.95-1.44-1.05-3.27-1.05-4.88,0-1.51.04-3.58,1.27-5.09.88-1.02,2.35-1.79,4.14-1.79,2.07,0,3.55.98,4.32,2.07.98,1.37,1.09,3.13,1.09,4.81s-.11,3.55-1.12,4.99c-.95,1.34-2.56,2.04-4.29,2.04M936.99,103.87c0-4.39-3.76-8.19-8.61-8.19s-8.61,3.8-8.61,8.19,3.87,7.84,8.61,7.84,8.61-3.48,8.61-7.84Z"/><path d="M951.75,96.59c0-.6,0-.91-.49-.91-.18,0-.25,0-.7.42-.07.04-.42.35-.63.53-1.05-.74-2.39-.95-3.69-.95-5.02,0-6.22,2.64-6.22,4.39,0,1.12.49,2.04,1.33,2.74,1.33,1.16,2.67,1.4,4.85,1.76,1.76.32,4.6.81,4.6,3.16,0,1.37-.95,2.99-4.32,2.99s-4.6-2.21-5.23-4.6c-.11-.46-.14-.6-.63-.6-.6,0-.6.25-.6.95v4.32c0,.6,0,.91.49.91.32,0,.98-.74,1.69-1.51,1.55,1.44,3.45,1.51,4.29,1.51,4.57,0,6.26-2.46,6.26-4.96,0-1.33-.6-2.39-1.51-3.23-1.33-1.23-2.95-1.51-4.18-1.72-2.81-.49-5.1-.91-5.1-2.78,0-1.12.95-2.49,4.29-2.49,4.08,0,4.25,2.84,4.32,3.86.04.39.46.39.6.39.6,0,.6-.25.6-.91v-3.27"/><path d="M975.11,99.79c-.98,3.83-1.79,5.73-2.85,7.45-1.09,1.83-2.49,3.48-4.04,3.48-1.93,0-2.25-2.67-2.25-4.57,0-2.32.67-5.06,1.02-6.36h8.12M967.31,98.52c1.79-7.59,4.81-10.93,6.89-10.93,2.25,0,2.25,3.9,2.25,4.57,0,1.37-.28,3.41-1.02,6.36h-8.12ZM979.08,94.24c0-3.69-1.4-7.63-4.85-7.63-5.27,0-10.89,9.42-10.89,17.47,0,4.18,1.61,7.63,4.85,7.63,5.34,0,10.89-9.59,10.89-17.47Z"/><path d="M987.64,117.52c-.48,1.91-2.06,3.16-3.59,3.16-.43,0-.7-.08-.9-.13.6-.35.78-1,.78-1.33,0-.43-.3-1.03-1.13-1.03s-1.55.78-1.55,1.6c0,1.08,1.13,1.73,2.84,1.73s4.97-.88,5.74-3.99l2.26-8.98c.05-.25.13-.48.13-.83,0-1.43-1.33-2.43-3.09-2.43-3.04,0-4.89,3.39-4.89,3.89,0,.35.4.35.53.35.38,0,.43-.1.55-.35,1.15-2.46,2.86-3.04,3.71-3.04,1,0,1.05.9,1.05,1.33,0,.35-.02.45-.07.65l-2.36,9.38M993.1,100.74c0-.58-.43-1.08-1.1-1.08-.78,0-1.55.75-1.55,1.5,0,.6.48,1.08,1.11,1.08.85,0,1.55-.8,1.55-1.5Z"/><path d="M1002.24,84.99c-.25,0-.67,0-.67.42,0,.18.1.28.32.53,3.02,2.78,6.39,7.52,6.39,16.59,0,7.34-2.28,12.9-6.08,16.34-.6.6-.63.63-.63.81s.1.42.46.42c.42,0,3.76-2.32,6.08-6.71,1.55-2.92,2.57-6.71,2.57-10.82,0-4.96-1.47-12.65-8.43-17.57"/></g><path class="cls-5" d="M399.74,173.97c41.84,0,65.61-19.59,77.34-33.79"/><polygon class="cls-7" points="484.72 149.63 486.52 125.77 464.96 136.14 484.72 149.63"/><rect class="cls-2" x="469.33" y="70.16" width="53.79" height="53.79" rx="8.12" ry="8.12"/><path class="cls-4" d="M885.21,325.08l-26.94,10.43c-4.17,1.61-8.9-.48-10.51-4.64l-35.94-92.81c-1.61-4.17.48-8.9,4.64-10.51l26.94-10.43c4.17-1.61,8.9.48,10.51,4.64l35.94,92.81c1.61,4.17-.48,8.9-4.64,10.51Z"/><polygon class="cls-6" points="753.45 151.56 753.45 151.56 753.45 151.56 753.45 151.56 753.45 151.56 753.45 151.56 753.45 151.56 753.45 151.56 753.45 151.56 753.45 151.56 753.45 151.56 753.45 151.56 753.45 151.56 753.45 151.56 753.45 151.56 753.45 151.56 753.45 151.56 753.45 151.56 753.45 151.56 753.45 151.56 753.45 151.56 753.45 151.56 753.45 151.56 753.45 151.56 753.45 151.56 753.45 151.56 753.45 151.56 753.45 151.56 753.45 151.56 753.45 151.56 753.45 151.56 753.45 151.56 753.45 151.56 753.45 151.56 753.45 151.56 753.45 151.56 753.45 151.56 753.45 151.56 753.45 151.56 753.45 151.56 753.45 151.56 753.45 151.56 753.45 151.56 753.45 151.56 753.45 151.56 753.45 151.56 753.45 151.56 753.45 151.56 753.45 151.56 753.45 151.56 753.45 151.56 753.45 151.56 753.45 151.56 753.45 151.56 753.45 151.56 753.45 151.56 753.45 151.56 753.45 151.56 753.45 151.56 753.45 151.56 753.45 151.56 753.45 151.56 753.45 151.56 753.45 151.56 753.45 151.56 753.45 151.56 753.45 151.56 753.45 151.56 753.45 151.56 753.45 151.56 753.45 151.56 753.45 151.56 753.45 151.56 753.45 151.56 753.45 151.56 753.45 151.56 753.45 151.56 753.45 151.56 753.45 151.56 753.45 151.56 753.45 151.56 753.45 151.56 753.45 151.56 753.45 151.56 753.45 151.56 753.45 151.56 753.45 151.56 753.45 151.56 753.45 151.56 753.45 151.56 753.45 151.56 753.45 151.56 753.45 151.56 753.45 151.56 753.45 151.56 753.45 151.56 753.45 151.56 753.45 151.56 753.45 151.56 753.45 151.56 753.45 151.56 753.45 151.56 753.45 151.56 753.45 151.56 753.45 151.56 753.45 151.56 753.45 151.56 753.45 151.56 753.45 151.56 753.45 151.56 753.45 151.56 753.45 151.56 753.45 151.56 753.45 151.56 753.45 151.56 753.45 151.56 753.45 151.56 753.45 151.56 753.45 151.56 753.45 151.56 753.45 151.56 753.45 151.56 753.45 151.56 753.45 151.56 753.45 151.56 753.45 151.56 753.45 151.56 753.45 151.56 753.45 151.56 753.45 151.56 753.45 151.56 753.45 151.56 753.45 151.56 753.45 151.56 753.45 151.56 753.45 151.56"/><polygon class="cls-6" points="855.64 181.82 855.64 181.82 855.64 181.82 855.64 181.82 855.64 181.82 855.64 181.82 855.64 181.82 855.64 181.82 855.64 181.82 855.64 181.82 855.64 181.82 855.64 181.82 855.64 181.82 855.64 181.82 855.64 181.82 855.64 181.82 855.64 181.82 855.64 181.82 855.64 181.82 855.64 181.82 855.64 181.82 855.64 181.82 855.64 181.82 855.64 181.82 855.64 181.82 855.64 181.82 855.64 181.82 855.64 181.82 855.64 181.82 855.64 181.82 855.64 181.82 855.64 181.82 855.64 181.82 855.64 181.82 855.64 181.82 855.64 181.82 855.64 181.82 855.64 181.82 855.64 181.82 855.64 181.82 855.64 181.82 855.64 181.82 855.64 181.82 855.64 181.82 855.64 181.82 855.64 181.82 855.64 181.82 855.64 181.82 855.64 181.82 855.64 181.82 855.64 181.82 855.64 181.82 855.64 181.82 855.64 181.82 855.64 181.82 855.64 181.82 855.64 181.82 855.64 181.82 855.64 181.82 855.64 181.82 855.64 181.82 855.64 181.82 855.64 181.82 855.64 181.82 855.64 181.82 855.64 181.82 855.64 181.82 855.64 181.82 855.64 181.82 855.64 181.82 855.64 181.82 855.64 181.82 855.64 181.82 855.64 181.82 855.64 181.82 855.64 181.82 855.64 181.82 855.64 181.82 855.64 181.82 855.64 181.82 855.64 181.82 855.64 181.82 855.64 181.82 855.64 181.82 855.64 181.82 855.64 181.82 855.64 181.82 855.64 181.82 855.64 181.82 855.64 181.82 855.64 181.82 855.64 181.82 855.64 181.82 855.64 181.82 855.64 181.82 855.64 181.82 855.64 181.82 855.64 181.82 855.64 181.82 855.64 181.82 855.64 181.82 855.64 181.82 855.64 181.82 855.64 181.82 855.64 181.82 855.64 181.82 855.64 181.82 855.64 181.82 855.64 181.82 855.64 181.82 855.64 181.82 855.64 181.82 855.64 181.82 855.64 181.82 855.64 181.82 855.64 181.82 855.64 181.82 855.64 181.82 855.64 181.82 855.64 181.82 855.64 181.82 855.64 181.82 855.64 181.82 855.64 181.82 855.64 181.82 855.64 181.82 855.64 181.82 855.64 181.82 855.64 181.82 855.64 181.82 855.64 181.82 855.64 181.82 855.64 181.82 855.64 181.82 855.64 181.82 855.64 181.82"/><path class="cls-7" d="M40.93,193.65l2.78-23.32h2c.93,0,1.39.46,1.39,1.38l-.32,4.14c1.14-1.92,2.39-3.37,3.75-4.36,1.36-.99,2.78-1.48,4.27-1.48,1.56,0,2.72.54,3.46,1.62.74,1.08,1.12,2.63,1.12,4.63,1.14-2.13,2.42-3.71,3.86-4.73s2.95-1.53,4.54-1.53c1.97,0,3.37.77,4.19,2.3s1.06,3.7.73,6.51l-1.73,14.83h-4.01l1.75-14.83c.21-1.82.16-3.18-.17-4.07-.33-.89-1.06-1.33-2.2-1.33-.65,0-1.3.17-1.95.5s-1.27.81-1.88,1.45c-.61.64-1.17,1.43-1.7,2.37-.52.94-.99,2.03-1.4,3.25v.02l-1.48,12.65h-4.01l1.73-14.83c.23-1.82.2-3.18-.09-4.07-.29-.89-1-1.33-2.14-1.33-.73,0-1.43.18-2.11.55-.68.37-1.31.9-1.91,1.6-.6.7-1.16,1.55-1.67,2.55-.52,1-.99,2.14-1.41,3.39l-1.43,12.14h-3.96Z"/><path class="cls-7" d="M91.02,187.51c-.55.98-1.13,1.87-1.76,2.67s-1.3,1.48-2,2.04c-.71.56-1.45.99-2.23,1.3-.78.31-1.59.46-2.42.46-.91,0-1.74-.18-2.48-.54-.74-.36-1.38-.89-1.9-1.59-.52-.7-.93-1.56-1.22-2.58-.29-1.02-.43-2.19-.43-3.51s.17-2.73.51-4.04c.34-1.31.83-2.55,1.46-3.71.63-1.17,1.38-2.23,2.27-3.21.88-.97,1.86-1.82,2.95-2.53s2.25-1.27,3.5-1.66,2.55-.59,3.92-.59c.99,0,1.95.08,2.88.24s1.86.44,2.77.84l-2.75,22.54h-2.09c-.53,0-.89-.14-1.08-.41-.19-.28-.28-.61-.28-1.01l.43-4.71ZM92.57,173.21c-.33-.08-.66-.13-.99-.15-.33-.02-.65-.03-.97-.03-.91,0-1.79.15-2.64.45-.85.3-1.65.72-2.39,1.25-.74.54-1.42,1.18-2.03,1.92-.61.74-1.13,1.56-1.56,2.45s-.77,1.84-1.01,2.84c-.24,1-.36,2.04-.36,3.09,0,3.7,1.17,5.54,3.51,5.54.74,0,1.47-.23,2.19-.7s1.39-1.12,2.04-1.96,1.24-1.82,1.79-2.97c.55-1.14,1.03-2.4,1.46-3.76l.98-7.98Z"/><path class="cls-7" d="M105.82,176.84c.61-1.3,1.26-2.43,1.97-3.39s1.45-1.71,2.22-2.25c.77-.54,1.57-.87,2.39-.99.82-.12,1.65.01,2.5.38l-.73,3.93c-1.97-.8-3.71-.51-5.23.87s-2.74,3.87-3.68,7.47l-1.27,10.79h-3.96l2.78-23.32h2c.93,0,1.39.46,1.39,1.38l-.39,5.13Z"/><path class="cls-7" d="M136.29,171.21l-.16,1.36c-.08.55-.38.92-.91,1.1l-2.89.51c.29.8.43,1.68.43,2.64,0,.77-.09,1.46-.26,2.07-.17.61-.39,1.18-.65,1.7-.26.52-.54,1.01-.84,1.47-.3.46-.58.92-.84,1.37-.26.45-.47.92-.65,1.4-.17.48-.26,1.01-.26,1.58,0,.41.07.81.22,1.18.14.38.33.74.55,1.1.22.36.46.72.73,1.09.26.37.51.76.73,1.17.22.41.4.86.55,1.34.14.48.22,1.02.22,1.6-.02,1.09-.27,2.12-.77,3.09s-1.21,1.84-2.14,2.59c-.93.75-2.05,1.34-3.37,1.78-1.32.44-2.81.66-4.46.66-1.32,0-2.52-.14-3.61-.41-1.09-.28-2.01-.67-2.78-1.17s-1.36-1.12-1.78-1.83c-.42-.71-.63-1.5-.63-2.36,0-.98.21-1.85.62-2.6s.96-1.4,1.66-1.94c.7-.54,1.51-.99,2.44-1.35.93-.35,1.91-.61,2.95-.78s2.11-.25,3.2-.24c1.09,0,2.16.09,3.21.24-.14-.29-.25-.59-.33-.91-.08-.31-.12-.66-.12-1.02,0-.47.07-.97.22-1.47s.38-1.08.72-1.73c-.58.4-1.22.71-1.94.93-.71.22-1.53.33-2.44.33s-1.7-.15-2.47-.44c-.77-.29-1.44-.72-2.02-1.29-.58-.57-1.03-1.28-1.37-2.13-.33-.85-.5-1.84-.5-2.98s.2-2.19.6-3.25c.4-1.07.99-2.02,1.76-2.85.77-.84,1.73-1.51,2.87-2.01s2.45-.76,3.94-.76c.82,0,1.6.1,2.35.3.74.2,1.41.5,2,.9h6.24ZM128.54,194.23c0-.41-.04-.79-.11-1.14-.08-.34-.17-.67-.3-.98-2-.32-3.73-.44-5.19-.36-1.46.08-2.66.31-3.61.68-.95.37-1.65.84-2.11,1.43-.46.58-.68,1.21-.68,1.89,0,1.1.46,1.95,1.38,2.53.92.58,2.22.87,3.91.87,1,0,1.92-.13,2.74-.4.83-.27,1.53-.62,2.12-1.07.58-.45,1.04-.97,1.37-1.56.33-.6.49-1.23.49-1.89ZM123.97,183.14c.82,0,1.54-.18,2.17-.54.63-.36,1.16-.84,1.59-1.43.43-.59.76-1.25.99-1.99s.34-1.48.34-2.23c0-1.35-.34-2.37-1.01-3.06-.68-.69-1.61-1.04-2.79-1.04-.82,0-1.54.17-2.16.51-.62.34-1.15.79-1.58,1.36s-.76,1.21-.98,1.93c-.22.72-.33,1.47-.33,2.25,0,1.38.33,2.43.99,3.15s1.58,1.08,2.77,1.08Z"/><path class="cls-7" d="M144.35,170.36l-2.78,23.3h-3.98l2.78-23.3h3.99ZM145.89,163.04c0,.4-.08.77-.24,1.12-.16.34-.37.65-.64.92-.27.27-.57.48-.91.63s-.69.23-1.06.23-.69-.08-1.02-.23c-.33-.15-.63-.36-.88-.63-.25-.27-.45-.58-.6-.92-.15-.34-.23-.72-.23-1.12s.08-.77.23-1.13c.15-.35.36-.66.62-.93.26-.27.55-.48.89-.64s.67-.24,1.02-.24.72.08,1.06.23c.34.15.64.37.9.63.26.27.47.58.63.94.16.36.24.74.24,1.14Z"/><path class="cls-7" d="M153.64,176.24c1.23-2.05,2.62-3.61,4.17-4.66,1.55-1.05,3.14-1.58,4.78-1.58.97,0,1.83.2,2.56.59.74.39,1.34.96,1.8,1.71s.78,1.68.94,2.77c.17,1.1.17,2.34,0,3.74l-1.73,14.83h-4.03l1.73-14.83c.21-1.84.1-3.2-.34-4.08-.44-.88-1.25-1.32-2.44-1.32-.73,0-1.47.2-2.22.6-.75.4-1.48.97-2.17,1.7-.7.74-1.35,1.62-1.95,2.66s-1.11,2.19-1.54,3.46l-1.32,11.82h-4.05l2.78-23.32h2c.91,0,1.37.46,1.37,1.38l-.34,4.53Z"/><path class="cls-7" d="M197.65,191.65c-.71.58-1.43,1.05-2.14,1.39-.71.34-1.45.59-2.22.72s-1.59.21-2.47.21c-1.34,0-2.52-.23-3.54-.69s-1.88-1.11-2.57-1.94c-.69-.83-1.21-1.84-1.57-3.01s-.54-2.46-.54-3.88c0-1.89.29-3.69.88-5.43.58-1.73,1.4-3.27,2.45-4.6,1.05-1.33,2.3-2.4,3.75-3.2,1.45-.8,3.03-1.2,4.75-1.2,1.53,0,2.82.27,3.85.82,1.03.54,1.94,1.34,2.71,2.38l-1.28,1.54c-.11.12-.22.22-.35.3-.13.08-.28.12-.44.12-.21,0-.42-.1-.63-.29-.21-.19-.47-.41-.81-.64-.33-.24-.75-.45-1.24-.64s-1.13-.29-1.9-.29c-1.05,0-2.03.29-2.96.86-.93.58-1.74,1.36-2.44,2.36-.7,1-1.25,2.18-1.65,3.54-.4,1.36-.6,2.83-.6,4.39,0,.95.11,1.81.32,2.59.21.77.53,1.43.96,1.98.42.54.94.97,1.56,1.26.61.3,1.33.45,2.15.45,1.02,0,1.87-.15,2.56-.46.69-.31,1.27-.64,1.74-1s.87-.69,1.2-1,.65-.46.97-.46c.29,0,.55.13.77.39l1,1.24c-.79.87-1.54,1.6-2.25,2.18Z"/><path class="cls-7" d="M211.47,193.98c-1.26,0-2.41-.22-3.46-.66-1.05-.44-1.95-1.07-2.71-1.9s-1.35-1.84-1.78-3.04c-.43-1.2-.64-2.56-.64-4.09,0-1.96.3-3.81.91-5.54.61-1.73,1.44-3.25,2.5-4.54s2.31-2.32,3.75-3.07,2.98-1.13,4.63-1.13c1.26,0,2.41.22,3.46.66,1.05.44,1.95,1.07,2.71,1.9s1.35,1.84,1.78,3.04.64,2.55.64,4.07c0,1.95-.3,3.79-.91,5.52-.61,1.73-1.44,3.25-2.49,4.55-1.05,1.3-2.3,2.33-3.75,3.09-1.44.76-2.99,1.14-4.65,1.14ZM211.86,190.78c1.11,0,2.11-.31,3.02-.92.9-.61,1.68-1.43,2.32-2.45s1.14-2.2,1.49-3.53c.35-1.33.52-2.73.52-4.19,0-2.15-.42-3.76-1.26-4.84-.84-1.08-2.05-1.62-3.63-1.62-1.12,0-2.14.3-3.04.91-.9.61-1.67,1.42-2.31,2.43s-1.13,2.19-1.48,3.52c-.35,1.33-.52,2.73-.52,4.19,0,2.15.42,3.77,1.25,4.86.83,1.1,2.05,1.64,3.64,1.64Z"/><path class="cls-7" d="M244.67,189.35c-.77.81-1.53,1.51-2.28,2.08-.74.58-1.5,1.05-2.27,1.44-.77.38-1.57.66-2.41.84-.84.18-1.75.26-2.72.26-1.32,0-2.5-.22-3.55-.67s-1.94-1.08-2.66-1.9-1.29-1.81-1.68-2.98c-.4-1.17-.59-2.47-.59-3.91,0-1.2.13-2.39.38-3.58.25-1.19.62-2.32,1.09-3.39.48-1.07,1.06-2.07,1.75-2.99.69-.92,1.48-1.71,2.37-2.38.89-.67,1.87-1.19,2.94-1.58,1.07-.38,2.22-.58,3.45-.58s2.18.17,3.03.51c.85.34,1.55.77,2.09,1.29.55.52.95,1.1,1.22,1.73s.4,1.23.4,1.79c0,1.01-.21,1.94-.62,2.79-.41.85-1.16,1.62-2.25,2.3-1.09.68-2.6,1.28-4.51,1.78s-4.37.91-7.38,1.22c0,.17,0,.33-.01.5,0,.16-.01.33-.01.49,0,2.05.44,3.62,1.33,4.7s2.23,1.62,4.02,1.62c.73,0,1.38-.08,1.95-.23s1.08-.34,1.53-.56c.45-.22.84-.47,1.18-.74.34-.27.65-.51.93-.74.28-.22.54-.41.79-.56s.49-.23.73-.23c.29,0,.55.13.77.39l1,1.26ZM238.25,172.98c-.96,0-1.84.2-2.64.6-.8.4-1.52.95-2.14,1.64-.62.7-1.15,1.52-1.59,2.46-.44.94-.78,1.96-1.02,3.05,2.34-.29,4.21-.62,5.62-1,1.41-.38,2.5-.78,3.26-1.22.76-.44,1.26-.91,1.5-1.41s.36-1.04.36-1.59c0-.28-.06-.56-.18-.86-.12-.3-.32-.57-.58-.82-.27-.25-.61-.45-1.04-.61s-.94-.24-1.55-.24Z"/><path class="cls-7" d="M281.78,173.69l-2.41,19.96h-3.92l2.41-19.96h-8.83l-2.32,19.23-1.07,4.76c-.17.55-.41.98-.74,1.28s-.78.45-1.35.45h-1.59l3.12-25.71h-9.24l-2.32,19.21-1.05,4.76c-.17.55-.41.98-.74,1.28-.33.3-.78.45-1.35.45h-1.59l3.1-25.65-2.25-.3c-.3-.05-.54-.15-.72-.31-.17-.16-.25-.39-.22-.7l.21-1.61h3.35l.23-1.91c.17-1.33.49-2.52.98-3.55.49-1.04,1.1-1.91,1.83-2.62.74-.71,1.58-1.25,2.54-1.62s1.98-.55,3.07-.55c.93,0,1.78.15,2.57.46l-.39,2.14c-.04.15-.12.26-.23.32s-.24.1-.41.12-.36.02-.58.01c-.22,0-.46-.01-.72-.01-.64,0-1.23.08-1.76.25s-1.02.45-1.43.85c-.42.4-.77.93-1.05,1.6-.28.67-.48,1.5-.6,2.5l-.27,2.02h9.43l.16-1.29c.17-1.43.53-2.73,1.09-3.91.56-1.18,1.3-2.19,2.22-3.04.92-.84,2.02-1.5,3.3-1.97,1.28-.47,2.74-.7,4.36-.7.26,0,.54.01.84.04.3.02.6.05.9.09s.58.08.84.14c.27.05.49.12.67.2l-.39,2.07c-.03.15-.1.26-.22.32-.11.06-.26.1-.44.12-.18.01-.4.01-.64,0-.24-.02-.52-.02-.84-.02-2.5,0-4.38.55-5.62,1.66-1.25,1.1-2,2.8-2.28,5.08l-.16,1.22h12.91l-.34,2.88h-.02Z"/><path class="cls-7" d="M300.66,191.65c-.71.58-1.43,1.05-2.14,1.39-.71.34-1.45.59-2.22.72s-1.59.21-2.47.21c-1.34,0-2.52-.23-3.54-.69s-1.88-1.11-2.57-1.94c-.69-.83-1.21-1.84-1.57-3.01s-.54-2.46-.54-3.88c0-1.89.29-3.69.88-5.43.58-1.73,1.4-3.27,2.45-4.6,1.05-1.33,2.3-2.4,3.75-3.2,1.45-.8,3.03-1.2,4.75-1.2,1.53,0,2.82.27,3.85.82,1.03.54,1.94,1.34,2.71,2.38l-1.28,1.54c-.11.12-.22.22-.35.3-.13.08-.28.12-.44.12-.21,0-.42-.1-.63-.29-.21-.19-.47-.41-.81-.64-.33-.24-.75-.45-1.24-.64s-1.13-.29-1.9-.29c-1.05,0-2.03.29-2.96.86-.93.58-1.74,1.36-2.44,2.36-.7,1-1.25,2.18-1.65,3.54-.4,1.36-.6,2.83-.6,4.39,0,.95.11,1.81.32,2.59.21.77.53,1.43.96,1.98.42.54.94.97,1.56,1.26.61.3,1.33.45,2.15.45,1.02,0,1.87-.15,2.56-.46.69-.31,1.27-.64,1.74-1s.87-.69,1.2-1,.65-.46.97-.46c.29,0,.55.13.77.39l1,1.24c-.79.87-1.54,1.6-2.25,2.18Z"/><path class="cls-7" d="M313.32,170.36l-2.78,23.3h-3.98l2.78-23.3h3.99ZM314.87,163.04c0,.4-.08.77-.24,1.12-.16.34-.37.65-.64.92-.27.27-.57.48-.91.63s-.69.23-1.06.23-.69-.08-1.02-.23c-.33-.15-.63-.36-.88-.63-.25-.27-.45-.58-.6-.92-.15-.34-.23-.72-.23-1.12s.08-.77.23-1.13c.15-.35.36-.66.62-.93.26-.27.55-.48.89-.64s.67-.24,1.02-.24.72.08,1.06.23c.34.15.64.37.9.63.26.27.47.58.63.94.16.36.24.74.24,1.14Z"/><path class="cls-7" d="M334.95,189.35c-.77.81-1.53,1.51-2.28,2.08-.74.58-1.5,1.05-2.27,1.44-.77.38-1.57.66-2.41.84-.84.18-1.75.26-2.72.26-1.32,0-2.5-.22-3.55-.67s-1.94-1.08-2.66-1.9-1.29-1.81-1.68-2.98c-.4-1.17-.59-2.47-.59-3.91,0-1.2.13-2.39.38-3.58.25-1.19.62-2.32,1.09-3.39.48-1.07,1.06-2.07,1.75-2.99.69-.92,1.48-1.71,2.37-2.38.89-.67,1.87-1.19,2.94-1.58,1.07-.38,2.22-.58,3.45-.58s2.18.17,3.03.51c.85.34,1.55.77,2.09,1.29.55.52.95,1.1,1.22,1.73s.4,1.23.4,1.79c0,1.01-.21,1.94-.62,2.79-.41.85-1.16,1.62-2.25,2.3-1.09.68-2.6,1.28-4.51,1.78s-4.37.91-7.38,1.22c0,.17,0,.33-.01.5,0,.16-.01.33-.01.49,0,2.05.44,3.62,1.33,4.7s2.23,1.62,4.02,1.62c.73,0,1.38-.08,1.95-.23s1.08-.34,1.53-.56c.45-.22.84-.47,1.18-.74.34-.27.65-.51.93-.74.28-.22.54-.41.79-.56s.49-.23.73-.23c.29,0,.55.13.77.39l1,1.26ZM328.53,172.98c-.96,0-1.84.2-2.64.6-.8.4-1.52.95-2.14,1.64-.62.7-1.15,1.52-1.59,2.46-.44.94-.78,1.96-1.02,3.05,2.34-.29,4.21-.62,5.62-1,1.41-.38,2.5-.78,3.26-1.22.76-.44,1.26-.91,1.5-1.41s.36-1.04.36-1.59c0-.28-.06-.56-.18-.86-.12-.3-.32-.57-.58-.82-.27-.25-.61-.45-1.04-.61s-.94-.24-1.55-.24Z"/><path class="cls-7" d="M344.4,176.24c1.23-2.05,2.62-3.61,4.17-4.66,1.55-1.05,3.14-1.58,4.78-1.58.97,0,1.83.2,2.56.59.74.39,1.34.96,1.8,1.71s.78,1.68.94,2.77c.17,1.1.17,2.34,0,3.74l-1.73,14.83h-4.03l1.73-14.83c.21-1.84.1-3.2-.34-4.08-.44-.88-1.25-1.32-2.44-1.32-.73,0-1.47.2-2.22.6-.75.4-1.48.97-2.17,1.7-.7.74-1.35,1.62-1.95,2.66s-1.11,2.19-1.54,3.46l-1.32,11.82h-4.05l2.78-23.32h2c.91,0,1.37.46,1.37,1.38l-.34,4.53Z"/><path class="cls-7" d="M364.28,189.26v-.36c0-.15.01-.36.03-.63s.06-.64.11-1.08c.05-.44.12-1.03.22-1.75l1.41-11.66h-2.57c-.21,0-.38-.07-.51-.22s-.18-.37-.15-.68l.18-1.63,3.55-.48,1.73-7.2c.08-.23.19-.42.35-.56.16-.15.36-.22.6-.22h2.12l-.98,8.03h6.06l-.34,2.97h-6.08l-1.39,11.45c-.08.63-.14,1.13-.18,1.52-.05.38-.08.69-.1.92-.02.23-.04.39-.05.48,0,.09-.01.16-.01.21,0,.78.18,1.36.55,1.74.36.38.85.56,1.46.56.41,0,.76-.06,1.06-.17s.56-.24.79-.38c.23-.14.42-.26.57-.38.15-.12.28-.17.39-.17.14,0,.24.03.31.09.07.06.13.16.19.3l.87,1.96c-.74.66-1.59,1.18-2.54,1.55-.95.38-1.9.56-2.86.56-1.47,0-2.63-.41-3.47-1.22-.84-.81-1.28-1.99-1.31-3.54Z"/><path class="cls-7" d="M374.89,410.45c-.71.58-1.43,1.05-2.14,1.39-.71.34-1.45.59-2.22.72s-1.59.21-2.47.21c-1.34,0-2.52-.23-3.54-.69s-1.88-1.11-2.57-1.94c-.69-.83-1.21-1.84-1.57-3.01s-.54-2.46-.54-3.88c0-1.89.29-3.69.88-5.43.58-1.73,1.4-3.27,2.45-4.6,1.05-1.33,2.3-2.4,3.75-3.2,1.45-.8,3.03-1.2,4.75-1.2,1.53,0,2.82.27,3.85.82,1.03.54,1.94,1.34,2.71,2.38l-1.28,1.54c-.11.12-.22.22-.35.3-.13.08-.28.12-.44.12-.21,0-.42-.1-.63-.29-.21-.19-.47-.41-.81-.64-.33-.24-.75-.45-1.24-.64s-1.13-.29-1.9-.29c-1.05,0-2.03.29-2.96.86-.93.58-1.74,1.36-2.44,2.36-.7,1-1.25,2.18-1.65,3.54-.4,1.36-.6,2.83-.6,4.39,0,.95.11,1.81.32,2.59.21.77.53,1.43.96,1.98.42.54.94.97,1.56,1.26.61.3,1.33.45,2.15.45,1.02,0,1.87-.15,2.56-.46.69-.31,1.27-.64,1.74-1s.87-.69,1.2-1,.65-.46.97-.46c.29,0,.55.13.77.39l1,1.24c-.79.87-1.54,1.6-2.25,2.18Z"/><path class="cls-7" d="M380.68,412.46l4.08-33.88h3.98l-4.08,33.88h-3.99Z"/><path class="cls-7" d="M405.06,406.32c-.55.98-1.13,1.87-1.76,2.67s-1.3,1.48-2,2.04c-.71.56-1.45.99-2.23,1.3-.78.31-1.59.46-2.42.46-.91,0-1.74-.18-2.48-.54-.74-.36-1.38-.89-1.9-1.59-.52-.7-.93-1.56-1.22-2.58-.29-1.02-.43-2.19-.43-3.51s.17-2.73.51-4.04c.34-1.31.83-2.55,1.46-3.71.63-1.17,1.38-2.23,2.27-3.21.88-.97,1.86-1.82,2.95-2.53s2.25-1.27,3.5-1.66,2.55-.59,3.92-.59c.99,0,1.95.08,2.88.24s1.86.44,2.77.84l-2.75,22.54h-2.09c-.53,0-.89-.14-1.08-.41-.19-.28-.28-.61-.28-1.01l.43-4.71ZM406.61,392.01c-.33-.08-.66-.13-.99-.15-.33-.02-.65-.03-.97-.03-.91,0-1.79.15-2.64.45-.85.3-1.65.72-2.39,1.25-.74.54-1.42,1.18-2.03,1.92-.61.74-1.13,1.56-1.56,2.45s-.77,1.84-1.01,2.84c-.24,1-.36,2.04-.36,3.09,0,3.7,1.17,5.54,3.51,5.54.74,0,1.47-.23,2.19-.7s1.39-1.12,2.04-1.96,1.24-1.82,1.79-2.97c.55-1.14,1.03-2.4,1.46-3.76l.98-7.98Z"/><path class="cls-7" d="M428.95,392.88c-.12.18-.24.32-.36.4-.12.08-.27.13-.46.13-.21,0-.44-.08-.69-.25-.25-.17-.55-.36-.91-.56s-.79-.4-1.31-.58c-.52-.18-1.14-.26-1.87-.26-.68,0-1.31.1-1.87.29-.56.19-1.04.46-1.45.79-.4.34-.71.73-.93,1.18-.22.45-.33.93-.33,1.44,0,.72.24,1.3.71,1.73.47.43,1.06.8,1.78,1.12.71.31,1.48.62,2.3.91.82.29,1.59.66,2.3,1.1s1.31,1.01,1.78,1.7c.47.69.71,1.59.71,2.69s-.21,2.1-.63,3.08c-.42.98-1.02,1.84-1.8,2.59-.78.74-1.72,1.34-2.82,1.78s-2.33.67-3.7.67c-1.47,0-2.77-.26-3.9-.79-1.13-.53-2.05-1.21-2.77-2.04l1-1.56c.14-.2.28-.35.44-.46s.37-.16.63-.16c.24,0,.49.11.73.32.24.22.55.46.91.72.36.27.82.51,1.38.72.55.21,1.26.32,2.11.32.74,0,1.42-.12,2.01-.34.6-.23,1.11-.54,1.53-.92.42-.38.74-.83.96-1.35.22-.51.33-1.06.33-1.64,0-.78-.24-1.4-.71-1.86s-1.06-.84-1.78-1.15-1.48-.59-2.3-.86c-.82-.27-1.59-.61-2.3-1.03-.71-.42-1.31-.97-1.78-1.64-.47-.67-.71-1.57-.71-2.69,0-.98.19-1.93.58-2.84.39-.91.95-1.72,1.67-2.43s1.61-1.27,2.65-1.69c1.04-.42,2.21-.63,3.52-.63,1.38,0,2.6.23,3.65.7s1.96,1.1,2.72,1.9l-1.03,1.47Z"/><path class="cls-7" d="M447.16,392.88c-.12.18-.24.32-.36.4-.12.08-.27.13-.46.13-.21,0-.44-.08-.69-.25-.25-.17-.55-.36-.91-.56s-.79-.4-1.31-.58c-.52-.18-1.14-.26-1.87-.26-.68,0-1.31.1-1.87.29-.56.19-1.04.46-1.45.79-.4.34-.71.73-.93,1.18-.22.45-.33.93-.33,1.44,0,.72.24,1.3.71,1.73.47.43,1.06.8,1.78,1.12.71.31,1.48.62,2.3.91.82.29,1.59.66,2.3,1.1s1.31,1.01,1.78,1.7c.47.69.71,1.59.71,2.69s-.21,2.1-.63,3.08c-.42.98-1.02,1.84-1.8,2.59-.78.74-1.72,1.34-2.82,1.78s-2.33.67-3.7.67c-1.47,0-2.77-.26-3.9-.79-1.13-.53-2.05-1.21-2.77-2.04l1-1.56c.14-.2.28-.35.44-.46s.37-.16.63-.16c.24,0,.49.11.73.32.24.22.55.46.91.72.36.27.82.51,1.38.72.55.21,1.26.32,2.11.32.74,0,1.42-.12,2.01-.34.6-.23,1.11-.54,1.53-.92.42-.38.74-.83.96-1.35.22-.51.33-1.06.33-1.64,0-.78-.24-1.4-.71-1.86s-1.06-.84-1.78-1.15-1.48-.59-2.3-.86c-.82-.27-1.59-.61-2.3-1.03-.71-.42-1.31-.97-1.78-1.64-.47-.67-.71-1.57-.71-2.69,0-.98.19-1.93.58-2.84.39-.91.95-1.72,1.67-2.43s1.61-1.27,2.65-1.69c1.04-.42,2.21-.63,3.52-.63,1.38,0,2.6.23,3.65.7s1.96,1.1,2.72,1.9l-1.03,1.47Z"/><path class="cls-7" d="M468.82,392.56l-2.3,19.14-1.07,4.76c-.17.55-.41.98-.74,1.28-.33.3-.78.45-1.35.45h-1.57l3.05-25.55-2.28-.3c-.27-.08-.49-.19-.65-.34-.16-.15-.22-.39-.19-.71l.21-1.66h3.28l.27-2.25c.17-1.33.5-2.52.99-3.55.49-1.04,1.12-1.91,1.87-2.62.75-.71,1.61-1.25,2.57-1.62s2.01-.55,3.13-.55c.93,0,1.78.15,2.57.46l-.39,2.12c-.06.31-.27.46-.62.46h-1.32c-.65,0-1.26.1-1.81.29-.55.19-1.04.5-1.47.93s-.79.99-1.08,1.68-.5,1.53-.63,2.53l-.25,2.14h5.76l-.39,2.94h-5.6Z"/><path class="cls-7" d="M488.95,406.32c-.55.98-1.13,1.87-1.76,2.67s-1.3,1.48-2,2.04c-.71.56-1.45.99-2.23,1.3-.78.31-1.59.46-2.42.46-.91,0-1.74-.18-2.48-.54-.74-.36-1.38-.89-1.9-1.59-.52-.7-.93-1.56-1.22-2.58-.29-1.02-.43-2.19-.43-3.51s.17-2.73.51-4.04c.34-1.31.83-2.55,1.46-3.71.63-1.17,1.38-2.23,2.27-3.21.88-.97,1.86-1.82,2.95-2.53s2.25-1.27,3.5-1.66,2.55-.59,3.92-.59c.99,0,1.95.08,2.88.24s1.86.44,2.77.84l-2.75,22.54h-2.09c-.53,0-.89-.14-1.08-.41-.19-.28-.28-.61-.28-1.01l.43-4.71ZM490.49,392.01c-.33-.08-.66-.13-.99-.15-.33-.02-.65-.03-.97-.03-.91,0-1.79.15-2.64.45-.85.3-1.65.72-2.39,1.25-.74.54-1.42,1.18-2.03,1.92-.61.74-1.13,1.56-1.56,2.45s-.77,1.84-1.01,2.84c-.24,1-.36,2.04-.36,3.09,0,3.7,1.17,5.54,3.51,5.54.74,0,1.47-.23,2.19-.7s1.39-1.12,2.04-1.96,1.24-1.82,1.79-2.97c.55-1.14,1.03-2.4,1.46-3.76l.98-7.98Z"/><path class="cls-7" d="M519.12,389.16l-11.57,23.3h-3.37l-5.97-23.3h3.28c.3,0,.55.08.73.25.18.17.3.37.36.6l3.41,15c.09.58.17,1.16.23,1.73.06.57.11,1.14.16,1.72.17-.57.35-1.13.55-1.7.2-.57.42-1.15.68-1.75l7.13-15c.12-.24.29-.45.5-.61.21-.16.46-.24.73-.24h3.14Z"/><path class="cls-7" d="M527.84,412.78c-1.26,0-2.41-.22-3.46-.66-1.05-.44-1.95-1.07-2.71-1.9s-1.35-1.84-1.78-3.04c-.43-1.2-.64-2.56-.64-4.09,0-1.96.3-3.81.91-5.54.61-1.73,1.44-3.25,2.5-4.54s2.31-2.32,3.75-3.07,2.98-1.13,4.63-1.13c1.26,0,2.41.22,3.46.66,1.05.44,1.95,1.07,2.71,1.9s1.35,1.84,1.78,3.04.64,2.55.64,4.07c0,1.95-.3,3.79-.91,5.52-.61,1.73-1.44,3.25-2.49,4.55-1.05,1.3-2.3,2.33-3.75,3.09-1.44.76-2.99,1.14-4.65,1.14ZM528.22,409.58c1.11,0,2.11-.31,3.02-.92.9-.61,1.68-1.43,2.32-2.45s1.14-2.2,1.49-3.53c.35-1.33.52-2.73.52-4.19,0-2.15-.42-3.76-1.26-4.84-.84-1.08-2.05-1.62-3.63-1.62-1.12,0-2.14.3-3.04.91-.9.61-1.67,1.42-2.31,2.43s-1.13,2.19-1.48,3.52c-.35,1.33-.52,2.73-.52,4.19,0,2.15.42,3.77,1.25,4.86.83,1.1,2.05,1.64,3.64,1.64Z"/><path class="cls-7" d="M548.67,395.64c.61-1.3,1.26-2.43,1.97-3.39s1.45-1.71,2.22-2.25c.77-.54,1.57-.87,2.39-.99.82-.12,1.65.01,2.5.38l-.73,3.93c-1.97-.8-3.71-.51-5.23.87s-2.74,3.87-3.68,7.47l-1.27,10.79h-3.96l2.78-23.32h2c.93,0,1.39.46,1.39,1.38l-.39,5.13Z"/><path class="cls-7" d="M565.45,389.16l-2.78,23.3h-3.98l2.78-23.3h3.99ZM567,381.84c0,.4-.08.77-.24,1.12-.16.34-.37.65-.64.92-.27.27-.57.48-.91.63s-.69.23-1.06.23-.69-.08-1.02-.23c-.33-.15-.63-.36-.88-.63-.25-.27-.45-.58-.6-.92-.15-.34-.23-.72-.23-1.12s.08-.77.23-1.13c.15-.35.36-.66.62-.93.26-.27.55-.48.89-.64s.67-.24,1.02-.24.72.08,1.06.23c.34.15.64.37.9.63.26.27.47.58.63.94.16.36.24.74.24,1.14Z"/><path class="cls-7" d="M591.18,392.54l-2.41,19.92h-3.94l2.44-19.92h-10.77l-1.41,11.5c-.08.63-.14,1.13-.18,1.52-.05.38-.08.69-.1.92-.02.23-.04.39-.05.48,0,.09-.01.16-.01.21,0,.78.18,1.36.55,1.74.36.38.86.56,1.48.56.39,0,.74-.06,1.05-.17s.57-.24.79-.38c.22-.14.41-.26.56-.38.15-.12.29-.17.41-.17s.22.03.29.09c.07.06.14.16.22.3l.84,1.96c-.73.66-1.57,1.18-2.52,1.55-.95.38-1.9.56-2.86.56-1.47,0-2.63-.41-3.48-1.22-.85-.81-1.29-1.99-1.32-3.54,0-.09,0-.21.01-.36s.02-.36.05-.63.06-.64.1-1.08c.05-.44.11-1.03.21-1.75l1.43-11.71h-2.5c-.23,0-.41-.08-.55-.23s-.19-.38-.16-.67l.18-1.56,3.51-.46,1.73-7.25c.08-.23.19-.42.35-.56.16-.15.36-.22.6-.22h2.14l-.98,8.05h14.66l-.34,2.9ZM593.53,381.84c0,.4-.08.77-.24,1.12-.16.34-.37.65-.64.92s-.57.48-.91.63-.69.23-1.06.23-.69-.08-1.02-.23c-.33-.15-.63-.36-.88-.63s-.45-.58-.6-.92-.23-.72-.23-1.12.08-.77.23-1.13c.15-.35.36-.66.62-.93.26-.27.55-.48.89-.64s.67-.24,1.02-.24.72.08,1.06.23c.34.15.64.37.9.63.26.27.47.58.63.94.16.36.24.74.24,1.14Z"/><path class="cls-7" d="M609.9,392.88c-.12.18-.24.32-.36.4-.12.08-.27.13-.46.13-.21,0-.44-.08-.69-.25-.25-.17-.55-.36-.91-.56s-.79-.4-1.31-.58c-.52-.18-1.14-.26-1.87-.26-.68,0-1.31.1-1.87.29-.56.19-1.04.46-1.45.79-.4.34-.71.73-.93,1.18-.22.45-.33.93-.33,1.44,0,.72.24,1.3.71,1.73.47.43,1.06.8,1.78,1.12.71.31,1.48.62,2.3.91.82.29,1.59.66,2.3,1.1s1.31,1.01,1.78,1.7c.47.69.71,1.59.71,2.69s-.21,2.1-.63,3.08c-.42.98-1.02,1.84-1.8,2.59-.78.74-1.72,1.34-2.82,1.78s-2.33.67-3.7.67c-1.47,0-2.77-.26-3.9-.79-1.13-.53-2.05-1.21-2.77-2.04l1-1.56c.14-.2.28-.35.44-.46s.37-.16.63-.16c.24,0,.49.11.73.32.24.22.55.46.91.72.36.27.82.51,1.38.72.55.21,1.26.32,2.11.32.74,0,1.42-.12,2.01-.34.6-.23,1.11-.54,1.53-.92.42-.38.74-.83.96-1.35.22-.51.33-1.06.33-1.64,0-.78-.24-1.4-.71-1.86s-1.06-.84-1.78-1.15-1.48-.59-2.3-.86c-.82-.27-1.59-.61-2.3-1.03-.71-.42-1.31-.97-1.78-1.64-.47-.67-.71-1.57-.71-2.69,0-.98.19-1.93.58-2.84.39-.91.95-1.72,1.67-2.43s1.61-1.27,2.65-1.69c1.04-.42,2.21-.63,3.52-.63,1.38,0,2.6.23,3.65.7s1.96,1.1,2.72,1.9l-1.03,1.47Z"/><path class="cls-7" d="M613.25,412.46l2.78-23.32h2c.93,0,1.39.46,1.39,1.38l-.32,4.14c1.14-1.92,2.39-3.37,3.75-4.36,1.36-.99,2.78-1.48,4.27-1.48,1.56,0,2.72.54,3.46,1.62.74,1.08,1.12,2.63,1.12,4.63,1.14-2.13,2.42-3.71,3.86-4.73s2.95-1.53,4.54-1.53c1.97,0,3.37.77,4.19,2.3s1.06,3.7.73,6.51l-1.73,14.83h-4.01l1.75-14.83c.21-1.82.16-3.18-.17-4.07-.33-.89-1.06-1.33-2.2-1.33-.65,0-1.3.17-1.95.5s-1.27.81-1.88,1.45c-.61.64-1.17,1.43-1.7,2.37-.52.94-.99,2.03-1.4,3.25v.02l-1.48,12.65h-4.01l1.73-14.83c.23-1.82.2-3.18-.09-4.07-.29-.89-1-1.33-2.14-1.33-.73,0-1.43.18-2.11.55-.68.37-1.31.9-1.91,1.6-.6.7-1.16,1.55-1.67,2.55-.52,1-.99,2.14-1.41,3.39l-1.43,12.14h-3.96Z"/><path class="cls-7" d="M659.85,412.46l4.08-33.88h3.98l-4.08,33.88h-3.99Z"/><path class="cls-7" d="M688.13,408.16c-.77.81-1.53,1.51-2.28,2.08-.74.58-1.5,1.05-2.27,1.44-.77.38-1.57.66-2.41.84-.84.18-1.75.26-2.72.26-1.32,0-2.5-.22-3.55-.67s-1.94-1.08-2.66-1.9-1.29-1.81-1.68-2.98c-.4-1.17-.59-2.47-.59-3.91,0-1.2.13-2.39.38-3.58.25-1.19.62-2.32,1.09-3.39.48-1.07,1.06-2.07,1.75-2.99.69-.92,1.48-1.71,2.37-2.38.89-.67,1.87-1.19,2.94-1.58,1.07-.38,2.22-.58,3.45-.58s2.18.17,3.03.51c.85.34,1.55.77,2.09,1.29.55.52.95,1.1,1.22,1.73s.4,1.23.4,1.79c0,1.01-.21,1.94-.62,2.79-.41.85-1.16,1.62-2.25,2.3-1.09.68-2.6,1.28-4.51,1.78s-4.37.91-7.38,1.22c0,.17,0,.33-.01.5,0,.16-.01.33-.01.49,0,2.05.44,3.62,1.33,4.7s2.23,1.62,4.02,1.62c.73,0,1.38-.08,1.95-.23s1.08-.34,1.53-.56c.45-.22.84-.47,1.18-.74.34-.27.65-.51.93-.74.28-.22.54-.41.79-.56s.49-.23.73-.23c.29,0,.55.13.77.39l1,1.26ZM681.71,391.78c-.96,0-1.84.2-2.64.6-.8.4-1.52.95-2.14,1.64-.62.7-1.15,1.52-1.59,2.46-.44.94-.78,1.96-1.02,3.05,2.34-.29,4.21-.62,5.62-1,1.41-.38,2.5-.78,3.26-1.22.76-.44,1.26-.91,1.5-1.41s.36-1.04.36-1.59c0-.28-.06-.56-.18-.86-.12-.3-.32-.57-.58-.82-.27-.25-.61-.45-1.04-.61s-.94-.24-1.55-.24Z"/><path class="cls-7" d="M712.48,389.16l-11.57,23.3h-3.37l-5.97-23.3h3.28c.3,0,.55.08.73.25.18.17.3.37.36.6l3.42,15c.09.58.17,1.16.23,1.73.06.57.11,1.14.16,1.72.17-.57.35-1.13.55-1.7.2-.57.42-1.15.68-1.75l7.13-15c.12-.24.29-.45.5-.61.21-.16.46-.24.73-.24h3.14Z"/><path class="cls-7" d="M730.76,408.16c-.77.81-1.53,1.51-2.28,2.08-.74.58-1.5,1.05-2.27,1.44-.77.38-1.57.66-2.41.84-.84.18-1.75.26-2.72.26-1.32,0-2.5-.22-3.55-.67s-1.94-1.08-2.66-1.9-1.29-1.81-1.68-2.98c-.4-1.17-.59-2.47-.59-3.91,0-1.2.13-2.39.38-3.58.25-1.19.62-2.32,1.09-3.39.48-1.07,1.06-2.07,1.75-2.99.69-.92,1.48-1.71,2.37-2.38.89-.67,1.87-1.19,2.94-1.58,1.07-.38,2.22-.58,3.45-.58s2.18.17,3.03.51c.85.34,1.55.77,2.09,1.29.55.52.95,1.1,1.22,1.73s.4,1.23.4,1.79c0,1.01-.21,1.94-.62,2.79-.41.85-1.16,1.62-2.25,2.3-1.09.68-2.6,1.28-4.51,1.78s-4.37.91-7.38,1.22c0,.17,0,.33-.01.5,0,.16-.01.33-.01.49,0,2.05.44,3.62,1.33,4.7s2.23,1.62,4.02,1.62c.73,0,1.38-.08,1.95-.23s1.08-.34,1.53-.56c.45-.22.84-.47,1.18-.74.34-.27.65-.51.93-.74.28-.22.54-.41.79-.56s.49-.23.73-.23c.29,0,.55.13.77.39l1,1.26ZM724.34,391.78c-.96,0-1.84.2-2.64.6-.8.4-1.52.95-2.14,1.64-.62.7-1.15,1.52-1.59,2.46-.44.94-.78,1.96-1.02,3.05,2.34-.29,4.21-.62,5.62-1,1.41-.38,2.5-.78,3.26-1.22.76-.44,1.26-.91,1.5-1.41s.36-1.04.36-1.59c0-.28-.06-.56-.18-.86-.12-.3-.32-.57-.58-.82-.27-.25-.61-.45-1.04-.61s-.94-.24-1.55-.24Z"/><path class="cls-7" d="M734.52,412.46l4.08-33.88h3.98l-4.08,33.88h-3.99Z"/><path class="cls-5" d="M765.62,392.18c41.84,0,65.61-19.59,77.34-33.79"/><polygon class="cls-7" points="850.6 367.85 852.4 343.98 830.84 354.35 850.6 367.85"/></g></svg>