<svg width="4239" height="3524" xmlns="http://www.w3.org/2000/svg" xmlns:xlink="http://www.w3.org/1999/xlink" xml:space="preserve" overflow="hidden"><g transform="translate(119 -536)"><g><text fill="#4EA72E" fill-opacity="1" font-family="Cambria Math,Cambria Math_MSFontService,sans-serif" font-style="normal" font-variant="normal" font-weight="400" font-stretch="normal" font-size="761" text-anchor="start" direction="ltr" writing-mode="lr-tb" unicode-bidi="normal" text-decoration="none" transform="matrix(1 0 0 1 342.359 1475)">(</text><text fill="#4EA72E" fill-opacity="1" font-family="Cambria Math,Cambria Math_MSFontService,sans-serif" font-style="normal" font-variant="normal" font-weight="400" font-stretch="normal" font-size="761" text-anchor="start" direction="ltr" writing-mode="lr-tb" unicode-bidi="normal" text-decoration="none" transform="matrix(1 0 0 1 1254.01 1475)">,</text><text fill="#4EA72E" fill-opacity="1" font-family="Cambria Math,Cambria Math_MSFontService,sans-serif" font-style="normal" font-variant="normal" font-weight="400" font-stretch="normal" font-size="761" text-anchor="start" direction="ltr" writing-mode="lr-tb" unicode-bidi="normal" text-decoration="none" transform="matrix(1 0 0 1 2005.01 1475)">)</text><path d="M2859 1172 3004 1317 2859 1462 2859 1395.93 2308 1395.93 2308 1238.07 2859 1238.07Z" fill="#595959" fill-rule="evenodd" fill-opacity="1"/><text fill="#FFFFFF" fill-opacity="1" font-family="Zen Kaku Gothic New,Zen Kaku Gothic New_MSFontService,sans-serif" font-style="normal" font-variant="normal" font-weight="700" font-stretch="normal" font-size="110" text-anchor="start" direction="ltr" writing-mode="lr-tb" unicode-bidi="normal" text-decoration="none" transform="matrix(1 0 0 1 2494.27 1357)">tiling</text><rect x="1447.5" y="1037.5" width="562" height="336" stroke="#4EA72E" stroke-width="22.9167" stroke-linecap="butt" stroke-linejoin="miter" stroke-miterlimit="8" stroke-opacity="1" fill="none"/><g><g><g><path d="M161 31.625C161 44.3275 150.702 54.6249 138 54.6249 125.297 54.6249 115 44.3275 115 31.625 115 18.9224 125.297 8.62499 138 8.62499 150.702 8.62499 161 18.9224 161 31.625Z" fill="#000000" fill-rule="nonzero" fill-opacity="1" transform="matrix(1 0 0 1 1506 1083)"/><path d="M200.675 150.075 184.575 81.6499C184 79.3499 182.85 77.0499 181.125 75.3249 174.225 69.5749 166.175 65.5499 156.975 62.6749 150.65 61.5249 144.325 60.3749 138 60.3749 131.675 60.3749 125.35 61.5249 119.025 63.2499 109.825 65.5499 101.775 70.1499 94.8749 75.8999 93.1499 77.6249 91.9999 79.9249 91.4249 82.2249L75.3249 150.65C75.3249 151.225 74.7499 152.375 74.7499 153.525 74.7499 159.85 79.9249 165.025 86.2499 165.025 91.4249 165.025 96.0249 161 97.1749 156.4L109.25 106.375 109.25 267.375 132.25 267.375 132.25 163.875 143.75 163.875 143.75 267.375 166.75 267.375 166.75 105.8 178.825 155.825C179.975 160.425 184.575 164.45 189.75 164.45 196.075 164.45 201.25 159.275 201.25 152.95 201.25 151.8 200.675 150.65 200.675 150.075Z" fill="#000000" fill-rule="nonzero" fill-opacity="1" transform="matrix(1 0 0 1 1506 1083)"/></g></g></g><g><g><g><path d="M1859 1104C1859 1112.84 1851.84 1120 1843 1120 1834.16 1120 1827 1112.84 1827 1104 1827 1095.16 1834.16 1088 1843 1088 1851.84 1088 1859 1095.16 1859 1104Z" fill="#000000" fill-rule="nonzero" fill-opacity="1"/><path d="M1883.6 1166.4 1863 1159.6C1863 1159.6 1851.6 1133.2 1851.2 1132.4 1848.4 1127.4 1843.2 1124 1837.2 1124 1834.8 1124 1832.4 1124.6 1830.4 1125.6L1802.4 1136.6C1800.4 1137.4 1798.8 1139 1798 1141L1788 1165C1786.4 1169 1788.2 1173.8 1792.4 1175.4 1793.4 1175.8 1794.4 1176 1795.4 1176 1798.6 1176 1801.6 1174.2 1802.8 1171L1811 1150.2 1819.4 1147 1805.6 1214.4 1778.8 1247C1776 1250.4 1776.4 1255.4 1779.8 1258.2 1781.2 1259.4 1783 1260 1784.8 1260 1787.2 1260 1789.4 1259 1791 1257L1819 1223C1819.8 1222 1820.4 1220.8 1820.6 1219.6L1825.4 1196.4 1847 1212 1847 1252C1847 1256.4 1850.6 1260 1855 1260 1859.4 1260 1863 1256.4 1863 1252L1863 1208C1863 1205.4 1861.8 1203 1859.8 1201.6L1840.4 1187.4 1845.8 1160.4 1849.6 1169.2C1850.6 1171.2 1852.2 1172.8 1854.4 1173.6L1878.4 1181.6C1879.2 1181.8 1880 1182 1881 1182 1884.4 1182 1887.4 1179.8 1888.6 1176.6 1890 1172.4 1887.8 1167.8 1883.6 1166.4Z" fill="#000000" fill-rule="nonzero" fill-opacity="1"/></g></g></g><text fill="#000000" fill-opacity="1" font-family="Zen Kaku Gothic New,Zen Kaku Gothic New_MSFontService,sans-serif" font-style="normal" font-variant="normal" font-weight="400" font-stretch="normal" font-size="110" text-anchor="start" direction="ltr" writing-mode="lr-tb" unicode-bidi="normal" text-decoration="none" transform="matrix(1 0 0 1 1378.11 1507)">The </text><text fill="#000000" fill-opacity="1" font-family="Cambria Math,Cambria Math_MSFontService,sans-serif" font-style="normal" font-variant="normal" font-weight="400" font-stretch="normal" font-size="110" text-anchor="start" direction="ltr" writing-mode="lr-tb" unicode-bidi="normal" text-decoration="none" transform="matrix(1 0 0 1 1590.66 1507)">ğ‘–</text><text fill="#000000" fill-opacity="1" font-family="Zen Kaku Gothic New,Zen Kaku Gothic New_MSFontService,sans-serif" font-style="normal" font-variant="normal" font-weight="400" font-stretch="normal" font-size="110" text-anchor="start" direction="ltr" writing-mode="lr-tb" unicode-bidi="normal" text-decoration="none" transform="matrix(1 0 0 1 1629.09 1507)">-</text><text fill="#000000" fill-opacity="1" font-family="Zen Kaku Gothic New,Zen Kaku Gothic New_MSFontService,sans-serif" font-style="normal" font-variant="normal" font-weight="400" font-stretch="normal" font-size="110" text-anchor="start" direction="ltr" writing-mode="lr-tb" unicode-bidi="normal" text-decoration="none" transform="matrix(1 0 0 1 1675.5 1507)">th image</text><text fill="#000000" fill-opacity="1" font-family="Cambria Math,Cambria Math_MSFontService,sans-serif" font-style="normal" font-variant="normal" font-weight="400" font-stretch="normal" font-size="110" text-anchor="start" direction="ltr" writing-mode="lr-tb" unicode-bidi="normal" text-decoration="none" transform="matrix(1 0 0 1 1543.27 1639)">ğ¼</text><text fill="#000000" fill-opacity="1" font-family="Cambria Math,Cambria Math_MSFontService,sans-serif" font-style="normal" font-variant="normal" font-weight="400" font-stretch="normal" font-size="80" text-anchor="start" direction="ltr" writing-mode="lr-tb" unicode-bidi="normal" text-decoration="none" transform="matrix(1 0 0 1 1578.66 1661)">ğ‘–</text><text fill="#000000" fill-opacity="1" font-family="Zen Kaku Gothic New,Zen Kaku Gothic New_MSFontService,sans-serif" font-style="normal" font-variant="normal" font-weight="400" font-stretch="normal" font-size="110" text-anchor="start" direction="ltr" writing-mode="lr-tb" unicode-bidi="normal" text-decoration="none" transform="matrix(1 0 0 1 1644.98 1639)">of the </text><text fill="#000000" fill-opacity="1" font-family="Zen Kaku Gothic New,Zen Kaku Gothic New_MSFontService,sans-serif" font-style="normal" font-variant="normal" font-weight="400" font-stretch="normal" font-size="110" text-anchor="start" direction="ltr" writing-mode="lr-tb" unicode-bidi="normal" text-decoration="none" transform="matrix(1 0 0 1 1551.73 1771)">dataset</text><rect x="0" y="0" width="221" height="221" fill="#FFFFFF" fill-opacity="1" transform="matrix(-1 0 0 1 898 1107)"/><rect x="0" y="0" width="221" height="221" fill="#156082" fill-opacity="1" transform="matrix(-1 0 0 1 1119 1107)"/><rect x="0" y="0" width="442" height="221" stroke="#4EA72E" stroke-width="22.9167" stroke-linecap="butt" stroke-linejoin="miter" stroke-miterlimit="8" stroke-opacity="1" fill="none" transform="matrix(-1 0 0 1 1119.5 1107.5)"/><text fill="#000000" fill-opacity="1" font-family="Cambria Math,Cambria Math_MSFontService,sans-serif" font-style="normal" font-variant="normal" font-weight="400" font-stretch="normal" font-size="92" text-anchor="start" direction="ltr" writing-mode="lr-tb" unicode-bidi="normal" text-decoration="none" transform="matrix(1 0 0 1 861.343 1068)">ğ‘¤</text><text fill="#000000" fill-opacity="1" font-family="Cambria Math,Cambria Math_MSFontService,sans-serif" font-style="normal" font-variant="normal" font-weight="400" font-stretch="normal" font-size="67" text-anchor="start" direction="ltr" writing-mode="lr-tb" unicode-bidi="normal" text-decoration="none" transform="matrix(1 0 0 1 928.948 1096)">ğ‘</text><text fill="#000000" fill-opacity="1" font-family="Cambria Math,Cambria Math_MSFontService,sans-serif" font-style="normal" font-variant="normal" font-weight="400" font-stretch="normal" font-size="55" text-anchor="start" direction="ltr" writing-mode="lr-tb" unicode-bidi="normal" text-decoration="none" transform="matrix(1 0 0 1 972.168 1072)">ğ‘†</text><text fill="#000000" fill-opacity="1" font-family="Cambria Math,Cambria Math_MSFontService,sans-serif" font-style="normal" font-variant="normal" font-weight="400" font-stretch="normal" font-size="92" text-anchor="start" direction="ltr" writing-mode="lr-tb" unicode-bidi="normal" text-decoration="none" transform="matrix(1 0 0 1 532.33 1249)">â„</text><text fill="#000000" fill-opacity="1" font-family="Cambria Math,Cambria Math_MSFontService,sans-serif" font-style="normal" font-variant="normal" font-weight="400" font-stretch="normal" font-size="67" text-anchor="start" direction="ltr" writing-mode="lr-tb" unicode-bidi="normal" text-decoration="none" transform="matrix(1 0 0 1 583.319 1277)">ğ‘</text><text fill="#000000" fill-opacity="1" font-family="Cambria Math,Cambria Math_MSFontService,sans-serif" font-style="normal" font-variant="normal" font-weight="400" font-stretch="normal" font-size="55" text-anchor="start" direction="ltr" writing-mode="lr-tb" unicode-bidi="normal" text-decoration="none" transform="matrix(1 0 0 1 626.54 1252)">ğ‘†</text><text fill="#000000" fill-opacity="1" font-family="Zen Kaku Gothic New,Zen Kaku Gothic New_MSFontService,sans-serif" font-style="normal" font-variant="normal" font-weight="400" font-stretch="normal" font-size="110" text-anchor="start" direction="ltr" writing-mode="lr-tb" unicode-bidi="normal" text-decoration="none" transform="matrix(1 0 0 1 606.204 1460)">Patch </text><text fill="#000000" fill-opacity="1" font-family="Zen Kaku Gothic New,Zen Kaku Gothic New_MSFontService,sans-serif" font-style="normal" font-variant="normal" font-weight="700" font-stretch="normal" font-size="110" text-anchor="start" direction="ltr" writing-mode="lr-tb" unicode-bidi="normal" text-decoration="none" transform="matrix(1 0 0 1 917.871 1460)">after </text><text fill="#000000" fill-opacity="1" font-family="Zen Kaku Gothic New,Zen Kaku Gothic New_MSFontService,sans-serif" font-style="normal" font-variant="normal" font-weight="700" font-stretch="normal" font-size="110" text-anchor="start" direction="ltr" writing-mode="lr-tb" unicode-bidi="normal" text-decoration="none" transform="matrix(1 0 0 1 713.912 1589)">scaling </text><text fill="#000000" fill-opacity="1" font-family="Cambria Math,Cambria Math_MSFontService,sans-serif" font-style="normal" font-variant="normal" font-weight="400" font-stretch="normal" font-size="110" text-anchor="start" direction="ltr" writing-mode="lr-tb" unicode-bidi="normal" text-decoration="none" transform="matrix(1 0 0 1 839.862 1725)">ğ‘</text><text fill="#000000" fill-opacity="1" font-family="Cambria Math,Cambria Math_MSFontService,sans-serif" font-style="normal" font-variant="normal" font-weight="400" font-stretch="normal" font-size="80" text-anchor="start" direction="ltr" writing-mode="lr-tb" unicode-bidi="normal" text-decoration="none" transform="matrix(1 0 0 1 906.137 1684)">ğ‘†</text><text fill="#E97132" fill-opacity="1" font-family="Cambria Math,Cambria Math_MSFontService,sans-serif" font-style="normal" font-variant="normal" font-weight="400" font-stretch="normal" font-size="110" text-anchor="start" direction="ltr" writing-mode="lr-tb" unicode-bidi="normal" text-decoration="none" transform="matrix(1 0 0 1 1403.66 2007)">ğ‘</text><text fill="#E97132" fill-opacity="1" font-family="Cambria Math,Cambria Math_MSFontService,sans-serif" font-style="normal" font-variant="normal" font-weight="400" font-stretch="normal" font-size="80" text-anchor="start" direction="ltr" writing-mode="lr-tb" unicode-bidi="normal" text-decoration="none" transform="matrix(1 0 0 1 1469.94 1966)">ğ‘†</text><text fill="#E97132" fill-opacity="1" font-family="Cambria Math,Cambria Math_MSFontService,sans-serif" font-style="normal" font-variant="normal" font-weight="400" font-stretch="normal" font-size="110" text-anchor="start" direction="ltr" writing-mode="lr-tb" unicode-bidi="normal" text-decoration="none" transform="matrix(1 0 0 1 1520.17 2007)"> </text><text fill="#E97132" fill-opacity="1" font-family="Zen Kaku Gothic New,Zen Kaku Gothic New_MSFontService,sans-serif" font-style="normal" font-variant="normal" font-weight="700" font-stretch="normal" font-size="110" text-anchor="start" direction="ltr" writing-mode="lr-tb" unicode-bidi="normal" text-decoration="none" transform="matrix(1 0 0 1 1544.24 2007)">is laid out from the upper left and truncated </text><text fill="#E97132" fill-opacity="1" font-family="Zen Kaku Gothic New,Zen Kaku Gothic New_MSFontService,sans-serif" font-style="normal" font-variant="normal" font-weight="700" font-stretch="normal" font-size="110" text-anchor="start" direction="ltr" writing-mode="lr-tb" unicode-bidi="normal" text-decoration="none" transform="matrix(1 0 0 1 2027.96 2205)">to the same size as </text><text fill="#E97132" fill-opacity="1" font-family="Cambria Math,Cambria Math_MSFontService,sans-serif" font-style="normal" font-variant="normal" font-weight="400" font-stretch="normal" font-size="110" text-anchor="start" direction="ltr" writing-mode="lr-tb" unicode-bidi="normal" text-decoration="none" transform="matrix(1 0 0 1 2991.03 2205)">ğ‘°</text><text fill="#E97132" fill-opacity="1" font-family="Cambria Math,Cambria Math_MSFontService,sans-serif" font-style="normal" font-variant="normal" font-weight="400" font-stretch="normal" font-size="80" text-anchor="start" direction="ltr" writing-mode="lr-tb" unicode-bidi="normal" text-decoration="none" transform="matrix(1 0 0 1 3039.16 2227)">ğ’Š</text><text fill="#E97132" fill-opacity="1" font-family="Zen Kaku Gothic New,Zen Kaku Gothic New_MSFontService,sans-serif" font-style="normal" font-variant="normal" font-weight="700" font-stretch="normal" font-size="110" text-anchor="start" direction="ltr" writing-mode="lr-tb" unicode-bidi="normal" text-decoration="none" transform="matrix(1 0 0 1 3073.51 2205)">.</text><rect x="3309" y="1182" width="200" height="200" fill="#FFFFFF" fill-opacity="1"/><rect x="3107" y="1180" width="200" height="200" fill="#156082" fill-opacity="1"/><rect x="3709" y="1182" width="200" height="200" fill="#FFFFFF" fill-opacity="1"/><rect x="3509" y="1180" width="200" height="200" fill="#156082" fill-opacity="1"/><rect x="0" y="0" width="200" height="200" fill="#FFFFFF" fill-opacity="1" transform="matrix(-1 0 0 1 3309 980)"/><rect x="3309" y="980" width="200" height="200" fill="#156082" fill-opacity="1"/><rect x="0" y="0" width="200" height="200" fill="#FFFFFF" fill-opacity="1" transform="matrix(-1 0 0 1 3709 980)"/><rect x="3709" y="982" width="200" height="200" fill="#156082" fill-opacity="1"/><rect x="0" y="0" width="200" height="124" fill="#FFFFFF" fill-opacity="1" transform="matrix(-1 0 0 1 3309 1390)"/><rect x="3311" y="1380" width="200" height="124" fill="#156082" fill-opacity="1"/><rect x="0" y="0" width="200" height="124" fill="#FFFFFF" fill-opacity="1" transform="matrix(-1 0 0 1 3709 1387)"/><rect x="3709" y="1381" width="200" height="125" fill="#156082" fill-opacity="1"/><rect x="0" y="0" width="800" height="536" stroke="#E97132" stroke-width="22.9167" stroke-linecap="butt" stroke-linejoin="miter" stroke-miterlimit="8" stroke-opacity="1" fill="none" transform="matrix(-1 0 0 1 3909.5 980.5)"/><text fill="#000000" fill-opacity="1" font-family="Zen Kaku Gothic New,Zen Kaku Gothic New_MSFontService,sans-serif" font-style="normal" font-variant="normal" font-weight="400" font-stretch="normal" font-size="110" text-anchor="start" direction="ltr" writing-mode="lr-tb" unicode-bidi="normal" text-decoration="none" transform="matrix(1 0 0 1 3100.64 1669)">Patch after tiling </text><text fill="#000000" fill-opacity="1" font-family="Cambria Math,Cambria Math_MSFontService,sans-serif" font-style="normal" font-variant="normal" font-weight="400" font-stretch="normal" font-size="110" text-anchor="start" direction="ltr" writing-mode="lr-tb" unicode-bidi="normal" text-decoration="none" transform="matrix(1 0 0 1 3448.84 1804)">ğ‘</text><text fill="#000000" fill-opacity="1" font-family="Cambria Math,Cambria Math_MSFontService,sans-serif" font-style="normal" font-variant="normal" font-weight="400" font-stretch="normal" font-size="80" text-anchor="start" direction="ltr" writing-mode="lr-tb" unicode-bidi="normal" text-decoration="none" transform="matrix(1 0 0 1 3512.57 1764)">ğ‘‡</text><text fill="#000000" fill-opacity="1" font-family="Zen Kaku Gothic New,Zen Kaku Gothic New_MSFontService,sans-serif" font-style="normal" font-variant="normal" font-weight="700" font-stretch="normal" font-size="147" text-anchor="start" direction="ltr" writing-mode="lr-tb" unicode-bidi="normal" text-decoration="none" transform="matrix(1 0 0 1 354.308 730)">Scaling</text><text fill="#4EA72E" fill-opacity="1" font-family="Cambria Math,Cambria Math_MSFontService,sans-serif" font-style="normal" font-variant="normal" font-weight="400" font-stretch="normal" font-size="761" text-anchor="start" direction="ltr" writing-mode="lr-tb" unicode-bidi="normal" text-decoration="none" transform="matrix(1 0 0 1 344.348 3334)">(</text><text fill="#4EA72E" fill-opacity="1" font-family="Cambria Math,Cambria Math_MSFontService,sans-serif" font-style="normal" font-variant="normal" font-weight="400" font-stretch="normal" font-size="761" text-anchor="start" direction="ltr" writing-mode="lr-tb" unicode-bidi="normal" text-decoration="none" transform="matrix(1 0 0 1 1205.44 3334)">,</text><text fill="#4EA72E" fill-opacity="1" font-family="Cambria Math,Cambria Math_MSFontService,sans-serif" font-style="normal" font-variant="normal" font-weight="400" font-stretch="normal" font-size="761" text-anchor="start" direction="ltr" writing-mode="lr-tb" unicode-bidi="normal" text-decoration="none" transform="matrix(1 0 0 1 1956.23 3334)">)</text><path d="M2810.51 3031 2955 3175.49 2810.51 3319.99 2810.51 3254.15 2260 3254.15 2260 3096.84 2810.51 3096.84Z" fill="#595959" fill-rule="evenodd" fill-opacity="1"/><text fill="#FFFFFF" fill-opacity="1" font-family="Zen Kaku Gothic New,Zen Kaku Gothic New_MSFontService,sans-serif" font-style="normal" font-variant="normal" font-weight="700" font-stretch="normal" font-size="110" text-anchor="start" direction="ltr" writing-mode="lr-tb" unicode-bidi="normal" text-decoration="none" transform="matrix(1 0 0 1 2399.37 3216)">scaling</text><g><g><g><path d="M963 3066.94C963 3111.4 926.959 3147.44 882.5 3147.44 838.041 3147.44 802 3111.4 802 3066.94 802 3022.48 838.041 2986.44 882.5 2986.44 926.959 2986.44 963 3022.48 963 3066.94Z" fill="#A6A6A6" fill-rule="nonzero" fill-opacity="1"/><path d="M1043.5 3328.56 1043.5 3248.06C1043.5 3235.99 1037.46 3223.91 1027.4 3215.86 1005.26 3197.75 977.088 3185.68 948.913 3177.62 928.788 3171.59 906.65 3167.56 882.5 3167.56 860.363 3167.56 838.225 3171.59 816.088 3177.62 787.913 3185.68 759.738 3199.76 737.6 3215.86 727.538 3223.91 721.5 3235.99 721.5 3248.06L721.5 3328.56 1043.5 3328.56Z" fill="#A6A6A6" fill-rule="nonzero" fill-opacity="1"/></g></g></g><rect x="789" y="2968" width="190" height="186" stroke="#000000" stroke-width="16.0417" stroke-linecap="butt" stroke-linejoin="miter" stroke-miterlimit="8" stroke-opacity="1" fill="none"/><text fill="#4EA72E" fill-opacity="1" font-family="Cambria Math,Cambria Math_MSFontService,sans-serif" font-style="normal" font-variant="normal" font-weight="400" font-stretch="normal" font-size="92" text-anchor="start" direction="ltr" writing-mode="lr-tb" unicode-bidi="normal" text-decoration="none" transform="matrix(1 0 0 1 589.476 3053)">â„</text><text fill="#4EA72E" fill-opacity="1" font-family="Cambria Math,Cambria Math_MSFontService,sans-serif" font-style="normal" font-variant="normal" font-weight="400" font-stretch="normal" font-size="67" text-anchor="start" direction="ltr" writing-mode="lr-tb" unicode-bidi="normal" text-decoration="none" transform="matrix(1 0 0 1 640.466 3072)">ğ‘–ğ‘˜</text><text fill="#4EA72E" fill-opacity="1" font-family="Cambria Math,Cambria Math_MSFontService,sans-serif" font-style="normal" font-variant="normal" font-weight="400" font-stretch="normal" font-size="92" text-anchor="start" direction="ltr" writing-mode="lr-tb" unicode-bidi="normal" text-decoration="none" transform="matrix(1 0 0 1 803.193 2891)">ğ‘¤</text><text fill="#4EA72E" fill-opacity="1" font-family="Cambria Math,Cambria Math_MSFontService,sans-serif" font-style="normal" font-variant="normal" font-weight="400" font-stretch="normal" font-size="67" text-anchor="start" direction="ltr" writing-mode="lr-tb" unicode-bidi="normal" text-decoration="none" transform="matrix(1 0 0 1 867.749 2910)">ğ‘–ğ‘˜</text><text fill="#000000" fill-opacity="1" font-family="Zen Kaku Gothic New,Zen Kaku Gothic New_MSFontService,sans-serif" font-style="normal" font-variant="normal" font-weight="400" font-stretch="normal" font-size="110" text-anchor="start" direction="ltr" writing-mode="lr-tb" unicode-bidi="normal" text-decoration="none" transform="matrix(1 0 0 1 657.949 3457)">inference</text><text fill="#000000" fill-opacity="1" font-family="Zen Kaku Gothic New,Zen Kaku Gothic New_MSFontService,sans-serif" font-style="normal" font-variant="normal" font-weight="400" font-stretch="normal" font-size="110" text-anchor="start" direction="ltr" writing-mode="lr-tb" unicode-bidi="normal" text-decoration="none" transform="matrix(1 0 0 1 747.324 3589)">result</text><text fill="#000000" fill-opacity="1" font-family="Zen Kaku Gothic New,Zen Kaku Gothic New_MSFontService,sans-serif" font-style="normal" font-variant="normal" font-weight="400" font-stretch="normal" font-size="110" text-anchor="start" direction="ltr" writing-mode="lr-tb" unicode-bidi="normal" text-decoration="none" transform="matrix(1 0 0 1 1349.02 3429)">Original patch</text><text fill="#000000" fill-opacity="1" font-family="Cambria Math,Cambria Math_MSFontService,sans-serif" font-style="normal" font-variant="normal" font-weight="400" font-stretch="normal" font-size="110" text-anchor="start" direction="ltr" writing-mode="lr-tb" unicode-bidi="normal" text-decoration="none" transform="matrix(1 0 0 1 1658.1 3558)">ğ‘</text><rect x="0" y="0" width="253" height="253" fill="#FFFFFF" fill-opacity="1" transform="matrix(-1 0 0 1 1682 3024)"/><rect x="0" y="0" width="253" height="253" fill="#156082" fill-opacity="1" transform="matrix(-1 0 0 1 1935 3024)"/><rect x="0" y="0" width="506" height="253" stroke="#4EA72E" stroke-width="22.9167" stroke-linecap="butt" stroke-linejoin="miter" stroke-miterlimit="8" stroke-opacity="1" fill="none" transform="matrix(-1 0 0 1 1935.5 3024.5)"/><rect x="0" y="0" width="380" height="381" fill="#FFFFFF" fill-opacity="1" transform="matrix(-1 0 0 1 3581 2973)"/><rect x="0" y="0" width="381" height="381" fill="#156082" fill-opacity="1" transform="matrix(-1 0 0 1 3962 2973)"/><rect x="0" y="0" width="761" height="381" stroke="#E97132" stroke-width="22.9167" stroke-linecap="butt" stroke-linejoin="miter" stroke-miterlimit="8" stroke-opacity="1" fill="none" transform="matrix(-1 0 0 1 3962.5 2973.5)"/><text fill="#000000" fill-opacity="1" font-family="Cambria Math,Cambria Math_MSFontService,sans-serif" font-style="normal" font-variant="normal" font-weight="400" font-stretch="normal" font-size="92" text-anchor="start" direction="ltr" writing-mode="lr-tb" unicode-bidi="normal" text-decoration="none" transform="matrix(1 0 0 1 3508.36 2893)">ğ‘¤</text><text fill="#000000" fill-opacity="1" font-family="Cambria Math,Cambria Math_MSFontService,sans-serif" font-style="normal" font-variant="normal" font-weight="400" font-stretch="normal" font-size="67" text-anchor="start" direction="ltr" writing-mode="lr-tb" unicode-bidi="normal" text-decoration="none" transform="matrix(1 0 0 1 3575.96 2921)">ğ‘</text><text fill="#000000" fill-opacity="1" font-family="Cambria Math,Cambria Math_MSFontService,sans-serif" font-style="normal" font-variant="normal" font-weight="400" font-stretch="normal" font-size="55" text-anchor="start" direction="ltr" writing-mode="lr-tb" unicode-bidi="normal" text-decoration="none" transform="matrix(1 0 0 1 3619.18 2897)">ğ‘†</text><text fill="#000000" fill-opacity="1" font-family="Cambria Math,Cambria Math_MSFontService,sans-serif" font-style="normal" font-variant="normal" font-weight="400" font-stretch="normal" font-size="92" text-anchor="start" direction="ltr" writing-mode="lr-tb" unicode-bidi="normal" text-decoration="none" transform="matrix(1 0 0 1 3023.69 3155)">â„</text><text fill="#000000" fill-opacity="1" font-family="Cambria Math,Cambria Math_MSFontService,sans-serif" font-style="normal" font-variant="normal" font-weight="400" font-stretch="normal" font-size="67" text-anchor="start" direction="ltr" writing-mode="lr-tb" unicode-bidi="normal" text-decoration="none" transform="matrix(1 0 0 1 3074.68 3183)">ğ‘</text><text fill="#000000" fill-opacity="1" font-family="Cambria Math,Cambria Math_MSFontService,sans-serif" font-style="normal" font-variant="normal" font-weight="400" font-stretch="normal" font-size="55" text-anchor="start" direction="ltr" writing-mode="lr-tb" unicode-bidi="normal" text-decoration="none" transform="matrix(1 0 0 1 3117.9 3158)">ğ‘†</text><text fill="#000000" fill-opacity="1" font-family="Zen Kaku Gothic New,Zen Kaku Gothic New_MSFontService,sans-serif" font-style="normal" font-variant="normal" font-weight="400" font-stretch="normal" font-size="110" text-anchor="start" direction="ltr" writing-mode="lr-tb" unicode-bidi="normal" text-decoration="none" transform="matrix(1 0 0 1 3110.27 3489)">Patch after scaling </text><text fill="#000000" fill-opacity="1" font-family="Cambria Math,Cambria Math_MSFontService,sans-serif" font-style="normal" font-variant="normal" font-weight="400" font-stretch="normal" font-size="110" text-anchor="start" direction="ltr" writing-mode="lr-tb" unicode-bidi="normal" text-decoration="none" transform="matrix(1 0 0 1 3523.25 3625)">ğ‘</text><text fill="#000000" fill-opacity="1" font-family="Cambria Math,Cambria Math_MSFontService,sans-serif" font-style="normal" font-variant="normal" font-weight="400" font-stretch="normal" font-size="80" text-anchor="start" direction="ltr" writing-mode="lr-tb" unicode-bidi="normal" text-decoration="none" transform="matrix(1 0 0 1 3589.52 3585)">ğ‘†</text><text fill="#E97132" fill-opacity="1" font-family="Zen Kaku Gothic New,Zen Kaku Gothic New_MSFontService,sans-serif" font-style="normal" font-variant="normal" font-weight="700" font-stretch="normal" font-size="110" text-anchor="start" direction="ltr" writing-mode="lr-tb" unicode-bidi="normal" text-decoration="none" transform="matrix(1 0 0 1 1984.41 3759)">Calculate </text><text fill="#E97132" fill-opacity="1" font-family="Cambria Math,Cambria Math_MSFontService,sans-serif" font-style="normal" font-variant="normal" font-weight="400" font-stretch="normal" font-size="110" text-anchor="start" direction="ltr" writing-mode="lr-tb" unicode-bidi="normal" text-decoration="none" transform="matrix(1 0 0 1 2469.67 3759)">(</text><text fill="#E97132" fill-opacity="1" font-family="Cambria Math,Cambria Math_MSFontService,sans-serif" font-style="normal" font-variant="normal" font-weight="400" font-stretch="normal" font-size="110" text-anchor="start" direction="ltr" writing-mode="lr-tb" unicode-bidi="normal" text-decoration="none" transform="matrix(1 0 0 1 2515.5 3759)">ğ’˜</text><text fill="#E97132" fill-opacity="1" font-family="Cambria Math,Cambria Math_MSFontService,sans-serif" font-style="normal" font-variant="normal" font-weight="400" font-stretch="normal" font-size="80" text-anchor="start" direction="ltr" writing-mode="lr-tb" unicode-bidi="normal" text-decoration="none" transform="matrix(1 0 0 1 2602.01 3781)">ğ’‘</text><text fill="#E97132" fill-opacity="1" font-family="Cambria Math,Cambria Math_MSFontService,sans-serif" font-style="normal" font-variant="normal" font-weight="400" font-stretch="normal" font-size="66" text-anchor="start" direction="ltr" writing-mode="lr-tb" unicode-bidi="normal" text-decoration="none" transform="matrix(1 0 0 1 2651.86 3752)">ğ’”</text><text fill="#E97132" fill-opacity="1" font-family="Cambria Math,Cambria Math_MSFontService,sans-serif" font-style="normal" font-variant="normal" font-weight="400" font-stretch="normal" font-size="110" text-anchor="start" direction="ltr" writing-mode="lr-tb" unicode-bidi="normal" text-decoration="none" transform="matrix(1 0 0 1 2692.97 3759)">,</text><text fill="#E97132" fill-opacity="1" font-family="Cambria Math,Cambria Math_MSFontService,sans-serif" font-style="normal" font-variant="normal" font-weight="400" font-stretch="normal" font-size="110" text-anchor="start" direction="ltr" writing-mode="lr-tb" unicode-bidi="normal" text-decoration="none" transform="matrix(1 0 0 1 2733.65 3759)">ğ’‰</text><text fill="#E97132" fill-opacity="1" font-family="Cambria Math,Cambria Math_MSFontService,sans-serif" font-style="normal" font-variant="normal" font-weight="400" font-stretch="normal" font-size="80" text-anchor="start" direction="ltr" writing-mode="lr-tb" unicode-bidi="normal" text-decoration="none" transform="matrix(1 0 0 1 2802.97 3781)">ğ’‘</text><text fill="#E97132" fill-opacity="1" font-family="Cambria Math,Cambria Math_MSFontService,sans-serif" font-style="normal" font-variant="normal" font-weight="400" font-stretch="normal" font-size="66" text-anchor="start" direction="ltr" writing-mode="lr-tb" unicode-bidi="normal" text-decoration="none" transform="matrix(1 0 0 1 2852.81 3752)">ğ’”</text><text fill="#E97132" fill-opacity="1" font-family="Cambria Math,Cambria Math_MSFontService,sans-serif" font-style="normal" font-variant="normal" font-weight="400" font-stretch="normal" font-size="110" text-anchor="start" direction="ltr" writing-mode="lr-tb" unicode-bidi="normal" text-decoration="none" transform="matrix(1 0 0 1 2893.93 3759)">)</text><text fill="#E97132" fill-opacity="1" font-family="Zen Kaku Gothic New,Zen Kaku Gothic New_MSFontService,sans-serif" font-style="normal" font-variant="normal" font-weight="700" font-stretch="normal" font-size="110" text-anchor="start" direction="ltr" writing-mode="lr-tb" unicode-bidi="normal" text-decoration="none" transform="matrix(1 0 0 1 2970.7 3759)">to be</text><text fill="#E97132" fill-opacity="1" font-family="Cambria Math,Cambria Math_MSFontService,sans-serif" font-style="normal" font-variant="normal" font-weight="400" font-stretch="normal" font-size="110" text-anchor="start" direction="ltr" writing-mode="lr-tb" unicode-bidi="normal" text-decoration="none" transform="matrix(1 0 0 1 1913.48 3978)">ğœ¶</text><text fill="#E97132" fill-opacity="1" font-family="Cambria Math,Cambria Math_MSFontService,sans-serif" font-style="normal" font-variant="normal" font-weight="400" font-stretch="normal" font-size="110" text-anchor="start" direction="ltr" writing-mode="lr-tb" unicode-bidi="normal" text-decoration="none" transform="matrix(1 0 0 1 1987.39 3978)"> </text><text fill="#E97132" fill-opacity="1" font-family="Cambria Math,Cambria Math_MSFontService,sans-serif" font-style="normal" font-variant="normal" font-weight="400" font-stretch="normal" font-size="110" text-anchor="start" direction="ltr" writing-mode="lr-tb" unicode-bidi="normal" text-decoration="none" transform="matrix(1 0 0 1 2035.9 3978)">âˆ—</text><text fill="#E97132" fill-opacity="1" font-family="Cambria Math,Cambria Math_MSFontService,sans-serif" font-style="normal" font-variant="normal" font-weight="400" font-stretch="normal" font-size="110" text-anchor="start" direction="ltr" writing-mode="lr-tb" unicode-bidi="normal" text-decoration="none" transform="matrix(1 0 0 1 2101.4 3978)"> </text><text fill="#E97132" fill-opacity="1" font-family="Cambria Math,Cambria Math_MSFontService,sans-serif" font-style="normal" font-variant="normal" font-weight="400" font-stretch="normal" font-size="110" text-anchor="start" direction="ltr" writing-mode="lr-tb" unicode-bidi="normal" text-decoration="none" transform="matrix(1 0 0 1 2137.7 3978)">(</text><text fill="#E97132" fill-opacity="1" font-family="Cambria Math,Cambria Math_MSFontService,sans-serif" font-style="normal" font-variant="normal" font-weight="400" font-stretch="normal" font-size="110" text-anchor="start" direction="ltr" writing-mode="lr-tb" unicode-bidi="normal" text-decoration="none" transform="matrix(1 0 0 1 2183.53 3978)">ğ’˜</text><text fill="#E97132" fill-opacity="1" font-family="Cambria Math,Cambria Math_MSFontService,sans-serif" font-style="normal" font-variant="normal" font-weight="400" font-stretch="normal" font-size="80" text-anchor="start" direction="ltr" writing-mode="lr-tb" unicode-bidi="normal" text-decoration="none" transform="matrix(1 0 0 1 2270.04 4000)">ğ’Šğ’Œ</text><text fill="#E97132" fill-opacity="1" font-family="Cambria Math,Cambria Math_MSFontService,sans-serif" font-style="normal" font-variant="normal" font-weight="400" font-stretch="normal" font-size="110" text-anchor="start" direction="ltr" writing-mode="lr-tb" unicode-bidi="normal" text-decoration="none" transform="matrix(1 0 0 1 2365.88 3978)"> </text><text fill="#E97132" fill-opacity="1" font-family="Cambria Math,Cambria Math_MSFontService,sans-serif" font-style="normal" font-variant="normal" font-weight="400" font-stretch="normal" font-size="110" text-anchor="start" direction="ltr" writing-mode="lr-tb" unicode-bidi="normal" text-decoration="none" transform="matrix(1 0 0 1 2402.18 3978)">âˆ—</text><text fill="#E97132" fill-opacity="1" font-family="Cambria Math,Cambria Math_MSFontService,sans-serif" font-style="normal" font-variant="normal" font-weight="400" font-stretch="normal" font-size="110" text-anchor="start" direction="ltr" writing-mode="lr-tb" unicode-bidi="normal" text-decoration="none" transform="matrix(1 0 0 1 2479.91 3978)">ğ’‰</text><text fill="#E97132" fill-opacity="1" font-family="Cambria Math,Cambria Math_MSFontService,sans-serif" font-style="normal" font-variant="normal" font-weight="400" font-stretch="normal" font-size="80" text-anchor="start" direction="ltr" writing-mode="lr-tb" unicode-bidi="normal" text-decoration="none" transform="matrix(1 0 0 1 2549.24 4000)">ğ’Šğ’Œ</text><text fill="#E97132" fill-opacity="1" font-family="Cambria Math,Cambria Math_MSFontService,sans-serif" font-style="normal" font-variant="normal" font-weight="400" font-stretch="normal" font-size="110" text-anchor="start" direction="ltr" writing-mode="lr-tb" unicode-bidi="normal" text-decoration="none" transform="matrix(1 0 0 1 2632.86 3978)">)</text><text fill="#E97132" fill-opacity="1" font-family="Cambria Math,Cambria Math_MSFontService,sans-serif" font-style="normal" font-variant="normal" font-weight="400" font-stretch="normal" font-size="110" text-anchor="start" direction="ltr" writing-mode="lr-tb" unicode-bidi="normal" text-decoration="none" transform="matrix(1 0 0 1 2709.24 3978)">=</text><text fill="#E97132" fill-opacity="1" font-family="Cambria Math,Cambria Math_MSFontService,sans-serif" font-style="normal" font-variant="normal" font-weight="400" font-stretch="normal" font-size="110" text-anchor="start" direction="ltr" writing-mode="lr-tb" unicode-bidi="normal" text-decoration="none" transform="matrix(1 0 0 1 2821.71 3978)">ğ’˜</text><text fill="#E97132" fill-opacity="1" font-family="Cambria Math,Cambria Math_MSFontService,sans-serif" font-style="normal" font-variant="normal" font-weight="400" font-stretch="normal" font-size="80" text-anchor="start" direction="ltr" writing-mode="lr-tb" unicode-bidi="normal" text-decoration="none" transform="matrix(1 0 0 1 2908.23 4011)">ğ’‘</text><text fill="#E97132" fill-opacity="1" font-family="Cambria Math,Cambria Math_MSFontService,sans-serif" font-style="normal" font-variant="normal" font-weight="400" font-stretch="normal" font-size="66" text-anchor="start" direction="ltr" writing-mode="lr-tb" unicode-bidi="normal" text-decoration="none" transform="matrix(1 0 0 1 2958.07 3982)">ğ‘º</text><text fill="#E97132" fill-opacity="1" font-family="Cambria Math,Cambria Math_MSFontService,sans-serif" font-style="normal" font-variant="normal" font-weight="400" font-stretch="normal" font-size="110" text-anchor="start" direction="ltr" writing-mode="lr-tb" unicode-bidi="normal" text-decoration="none" transform="matrix(1 0 0 1 3015.41 3978)"> </text><text fill="#E97132" fill-opacity="1" font-family="Cambria Math,Cambria Math_MSFontService,sans-serif" font-style="normal" font-variant="normal" font-weight="400" font-stretch="normal" font-size="110" text-anchor="start" direction="ltr" writing-mode="lr-tb" unicode-bidi="normal" text-decoration="none" transform="matrix(1 0 0 1 3051.71 3978)">âˆ—</text><text fill="#E97132" fill-opacity="1" font-family="Cambria Math,Cambria Math_MSFontService,sans-serif" font-style="normal" font-variant="normal" font-weight="400" font-stretch="normal" font-size="110" text-anchor="start" direction="ltr" writing-mode="lr-tb" unicode-bidi="normal" text-decoration="none" transform="matrix(1 0 0 1 3129.44 3978)">ğ’‰</text><text fill="#E97132" fill-opacity="1" font-family="Cambria Math,Cambria Math_MSFontService,sans-serif" font-style="normal" font-variant="normal" font-weight="400" font-stretch="normal" font-size="80" text-anchor="start" direction="ltr" writing-mode="lr-tb" unicode-bidi="normal" text-decoration="none" transform="matrix(1 0 0 1 3198.76 4011)">ğ’‘</text><text fill="#E97132" fill-opacity="1" font-family="Cambria Math,Cambria Math_MSFontService,sans-serif" font-style="normal" font-variant="normal" font-weight="400" font-stretch="normal" font-size="66" text-anchor="start" direction="ltr" writing-mode="lr-tb" unicode-bidi="normal" text-decoration="none" transform="matrix(1 0 0 1 3248.61 3982)">ğ‘º</text><text fill="#000000" fill-opacity="1" font-family="Zen Kaku Gothic New,Zen Kaku Gothic New_MSFontService,sans-serif" font-style="normal" font-variant="normal" font-weight="700" font-stretch="normal" font-size="147" text-anchor="start" direction="ltr" writing-mode="lr-tb" unicode-bidi="normal" text-decoration="none" transform="matrix(1 0 0 1 411.332 2540)">Tiling</text></g></g></svg>